<?xml version="1.0" encoding="UTF-8"?>
<svg id="Layer_1" xmlns="http://www.w3.org/2000/svg" version="1.1" viewBox="0 0 471 444.5">
  <!-- Generator: Adobe Illustrator 30.1.0, SVG Export Plug-In . SVG Version: 2.1.1 Build 136)  -->
  <defs>
    <style>
      .st0 {
        fill: #4d4d4d;
      }
    </style>
  </defs>
  <path class="st0" d="M337,0c8.49,1.93,16.43,5.25,22.67,11.84,6.11,6.45,10.25,14.58,10.31,23.64l.14,23.05c.12,20.16,18.44,36.3,38.37,36.4l24.02.13c8.86.05,17.05,3.11,23.99,8.37,8.16,6.18,12.69,14.91,14.51,24.58v282.5c-1.49,8.97-5.09,17.02-12.17,23.4-6.08,5.48-14.2,9.11-22.27,10.06-.29.03-1.09.5-1.05.54H134c-8.49-1.93-16.43-5.25-22.67-11.84s-10.25-14.58-10.31-23.64l-.14-23.05c-.12-20.15-18.43-36.3-38.37-36.4l-24.02-.13c-8.86-.05-17.05-3.11-23.99-8.37-8.16-6.18-12.69-14.91-14.51-24.58V34C0,25.87,5.62,17.61,10.79,12.02,17.66,4.6,26.34,2.09,35.5,0h301.5Z"/>
</svg>