<?xml version="1.0" encoding="UTF-8"?>
<svg id="Layer_1" xmlns="http://www.w3.org/2000/svg" version="1.1" viewBox="0 0 174.01 175.58">
  <!-- Generator: Adobe Illustrator 30.1.0, SVG Export Plug-In . SVG Version: 2.1.1 Build 136)  -->
  <defs>
    <style>
      .st0 {
        fill: #fff;
      }
    </style>
  </defs>
  <rect class="st0" x="114.01" y="60.64" width="20.65" height="20.73"/>
  <rect class="st0" x="54.09" y="117.65" width="20.63" height="20.62" transform="translate(-63.68 192.12) rotate(-89.89)"/>
  <rect class="st0" x="54.12" y="60.86" width="20.54" height="20.55"/>
  <rect class="st0" x="54.14" y="89.2" width="20.5" height="20.75"/>
  <rect class="st0" x="114.13" y="89.3" width="20.54" height="20.51"/>
  <path class="st0" d="M117.8,31.82c3.96-.12,7.52-3.08,7.52-8.2l.02-15.57c0-4.73-3.37-7.92-7.46-8.02-4.52-.11-7.79,3.26-7.81,8.05l-.05,15.05c-.02,5.01,2.88,8.84,7.78,8.69Z"/>
  <path class="st0" d="M13.4,146.96V49.95s131.97,0,131.97,0l.08,51.03,13.32-.39-.1-71.97c-.01-8.64-7.92-13.45-15.01-13.41l-15.33.09-.15,8.79c-.11,6.4-5.32,10.99-11.11,10.59-6.12-.42-9.9-5.35-9.96-11.52l-.08-7.9-53.45.02.08,8.92c.05,6.02-5.1,10.48-10.66,10.5-5.38.02-10.35-4.6-10.43-10.52l-.12-8.94-19.13.17C7.16,15.45.04,21.12.04,28.11L0,149.01c0,9.02,7.19,14.26,15.45,14.27l83.85.05c.2-6.13.07-11.06-.34-16.42l-85.56.07Z"/>
  <path class="st0" d="M42.9,31.85c4.23.01,7.84-2.98,7.84-8.18v-15.59C50.75,3.2,47.38,0,42.99,0c-4.07,0-7.59,3.36-7.58,8.08l.04,15.98c.01,4.67,3.55,7.76,7.44,7.78Z"/>
  <rect class="st0" x="84.13" y="60.8" width="20.53" height="20.59"/>
  <rect class="st0" x="84.12" y="117.73" width="20.53" height="20.56"/>
  <polygon class="st0" points="84.16 89.47 84.17 109.8 104.74 109.64 104.54 89.19 84.16 89.47"/>
  <rect class="st0" x="24.11" y="117.73" width="20.58" height="20.53"/>
  <polygon class="st0" points="44.61 89.36 24.18 89.31 24.19 109.75 44.67 109.73 44.61 89.36"/>
  <rect class="st0" x="24.12" y="60.79" width="20.6" height="20.64"/>
  <path class="st0" d="M146.56,120.68c-15.16,0-27.45,12.29-27.45,27.45s12.29,27.45,27.45,27.45,27.45-12.29,27.45-27.45-12.29-27.45-27.45-27.45ZM164.49,158.34c-.59,1.31-3.95,2.19-5.25,1.42l-16.23-9.6-.21-21.96c-.01-1.31,2-3.72,3.26-3.86,1.59-.18,4.13,2,4.14,3.63l.05,18.01,12.17,7.06c1.64.95,2.76,3.77,2.07,5.3Z"/>
</svg>