<?xml version="1.0" encoding="UTF-8"?>
<svg id="Layer_1" xmlns="http://www.w3.org/2000/svg" version="1.1" viewBox="0 0 180.37 130.16">
  <!-- Generator: Adobe Illustrator 30.1.0, SVG Export Plug-In . SVG Version: 2.1.1 Build 136)  -->
  <defs>
    <style>
      .st0 {
        fill: #2396ed;
      }
    </style>
  </defs>
  <path class="st0" d="M140.6,25.72l3.89,2.82c6.77,5.46,10.66,11.62,11.51,18.67,7.28-1.41,16.58-.35,20.65,2.47l3.72,2.29-.68,1.41c-1.18,2.64-1.52,3.35-1.69,3.7-6.6,13.21-19.63,13.39-25.72,13.21-15.4,38.57-48.23,59.89-92.57,59.89-20.48,0-36.04-6.52-46.54-19.38C-.71,93.88-.71,71.86.47,64.82l.34-1.41h122.35c6.43,0,11.34-1.76,13.71-3.17-2.54-3.88-3.38-8.28-3.55-10.74-.51-7.05,1.18-14.44,4.57-19.73l2.71-4.05ZM32.63,42.27v17.61H14.01v-17.61h18.62ZM54.63,42.27v17.61h-18.62v-17.61h18.62ZM76.63,42.27v17.61h-18.62v-17.61h18.62ZM98.63,42.27v17.61h-18.62v-17.61h18.62ZM120.63,42.27v17.61h-18.62v-17.61h18.62ZM98.63,21.14v17.61h-18.62v-17.61h18.62ZM76.63,21.14v17.61h-18.62v-17.61h18.62ZM54.63,21.14v17.61h-18.61v-17.61h18.61ZM98.63,0v17.61h-18.62V0h18.62Z"/>
</svg>