<?xml version="1.0" encoding="UTF-8"?>
<svg version="1.1" xmlns="http://www.w3.org/2000/svg" width="1002" height="998">
<path d="M0 0 C0.85335937 0.39864258 1.70671875 0.79728516 2.5859375 1.20800781 C34.30791127 16.06841842 62.59069893 36.17629594 89 59 C89.78117188 59.66773438 90.56234375 60.33546875 91.3671875 61.0234375 C103.34537944 71.50953633 115.19827873 82.84201723 124.98046875 95.421875 C126.88713117 97.85591213 128.88350766 100.18861773 130.91625977 102.51757812 C137.36160797 109.93778666 143.03274892 117.81524769 148.57861328 125.92285156 C149.89618428 127.84828854 151.22639571 129.76436021 152.55859375 131.6796875 C159.16445741 141.27866903 164.95466713 151.3161988 170.60986328 161.49853516 C171.47249024 163.05077888 172.33977886 164.6004536 173.21435547 166.14599609 C195.81968097 206.12947205 208.9525826 251.66283277 215 297 C215.0932254 297.69537872 215.18645081 298.39075745 215.28250122 299.10720825 C217.15174104 313.56804624 217.34041674 327.98429461 217.31567383 342.55053711 C217.31253019 346.40052082 217.336008 350.24972079 217.36132812 354.09960938 C217.4298294 380.81457469 214.58068894 406.88044722 209 433 C208.79036621 433.98178223 208.58073242 434.96356445 208.36474609 435.97509766 C201.40893155 467.6484179 189.96357693 498.34356069 174.99755859 527.07861328 C173.96058625 529.0759144 172.94298687 531.08241284 171.92578125 533.08984375 C158.7899658 558.74988207 141.84326801 583.32717046 122.265625 604.5234375 C121.01718222 605.8881146 119.77662882 607.26071438 118.57324219 608.6652832 C113.71409495 614.33598056 108.5280929 619.65807094 103.24951172 624.93579102 C101.76106763 626.42641615 100.28082723 627.92487017 98.80078125 629.42382812 C92.52732407 635.73363979 85.97210908 641.45735205 79 647 C77.97240151 647.86333059 76.94898628 648.7317211 75.93359375 649.609375 C21.25233165 696.50347771 -49.07959443 724.51725747 -120 734 C-120.8142041 734.11182617 -121.6284082 734.22365234 -122.46728516 734.33886719 C-195.21561602 743.98993263 -271.03819555 730.39401038 -337 699 C-338.22879883 698.41847168 -338.22879883 698.41847168 -339.48242188 697.82519531 C-364.32217897 685.9870441 -387.50754185 671.1709183 -409 654 C-409.94101562 653.25234375 -410.88203125 652.5046875 -411.8515625 651.734375 C-417.57603919 647.12254307 -423.0588018 642.29665587 -428.46484375 637.31640625 C-430.52643053 635.43270677 -432.61720066 633.61363292 -434.75 631.8125 C-444.14407946 623.64373525 -453.02589895 614.55438987 -461 605 C-462.20462891 603.61167969 -462.20462891 603.61167969 -463.43359375 602.1953125 C-481.02466769 581.86487979 -496.02477612 559.52339408 -509 536 C-509.47115234 535.15872559 -509.94230469 534.31745117 -510.42773438 533.45068359 C-534.25171982 490.67724643 -547.68623095 443.37077615 -554 395 C-554.13277344 393.99324219 -554.26554688 392.98648437 -554.40234375 391.94921875 C-565.65850474 301.52050969 -540.84716443 205.5367156 -489 131 C-488.25621094 129.91976562 -487.51242187 128.83953125 -486.74609375 127.7265625 C-478.35639415 115.67587201 -469.14741634 104.20448413 -459.1953125 93.40625 C-457.37541359 91.41148536 -455.61176815 89.38667194 -453.8515625 87.33984375 C-449.51972597 82.37943452 -444.90756759 77.7156641 -440.25 73.0625 C-439.36111084 72.1744165 -438.47222168 71.28633301 -437.55639648 70.37133789 C-432.41123822 65.27417287 -427.26429676 60.42062721 -421.5390625 55.98046875 C-419.13525808 54.1055013 -416.83371643 52.14027567 -414.53637695 50.13720703 C-390.83103558 29.57013577 -363.24377449 13.4804273 -335 0 C-334.26120605 -0.35416992 -333.52241211 -0.70833984 -332.76123047 -1.07324219 C-294.83433811 -19.10184258 -253.70568933 -30.40185755 -212 -35 C-211.13358887 -35.10296387 -210.26717773 -35.20592773 -209.37451172 -35.31201172 C-138.49926283 -43.54847813 -64.27573669 -30.67916106 0 0 Z M-255.5625 13.5625 C-256.71137695 13.85543945 -257.86025391 14.14837891 -259.04394531 14.45019531 C-268.41999536 16.47231931 -268.41999536 16.47231931 -275.5390625 22.2421875 C-284.6237895 44.26774864 -288.34006545 68.14166519 -279.25244141 90.86962891 C-266.61039579 120.56951139 -237.47848768 134.76085447 -209.5 146.9375 C-177.48176383 160.94299312 -149.17003532 181.45368363 -136 215 C-131.0074432 228.12612615 -129.45614581 242.01086163 -130 256 C-129.09378906 256.42410156 -128.18757812 256.84820312 -127.25390625 257.28515625 C-119.8017227 260.84630418 -113.34067212 264.64093821 -107 270 C-105.67279572 271.00812032 -104.3411602 272.01052181 -103 273 C-95.90490938 269.90257334 -92.94095604 263.34501399 -90.1875 256.4375 C-88.57195556 251.92226041 -87.26268833 247.81595278 -87 243 C-86.94972656 242.15566406 -86.89945313 241.31132812 -86.84765625 240.44140625 C-86.35872747 225.71487127 -90.99839799 212.33278703 -95.86801147 198.65896606 C-101.33227536 183.27572756 -106.51118606 167.96764407 -110 152 C-110.17063965 151.28183105 -110.3412793 150.56366211 -110.51708984 149.82373047 C-115.38194454 129.08206468 -115.36615175 104.36175964 -109 84 C-108.75330566 83.20706543 -108.50661133 82.41413086 -108.25244141 81.59716797 C-103.35159233 66.34105644 -96.52723445 53.19161934 -86 41 C-85.40960937 40.26523438 -84.81921875 39.53046875 -84.2109375 38.7734375 C-78.37493535 31.74540087 -71.26322952 26.45762331 -64 21 C-64.81349631 18.81720377 -64.81349631 18.81720377 -66.99584961 18.2097168 C-67.87249268 17.95875244 -68.74913574 17.70778809 -69.65234375 17.44921875 C-70.64306885 17.16530273 -71.63379395 16.88138672 -72.65454102 16.58886719 C-73.73791748 16.29141602 -74.82129395 15.99396484 -75.9375 15.6875 C-77.05761475 15.37844727 -78.17772949 15.06939453 -79.33178711 14.75097656 C-136.99169863 -0.75569511 -197.75070286 -1.18051383 -255.5625 13.5625 Z M-389 81 C-389.59006836 81.47002441 -390.18013672 81.94004883 -390.78808594 82.42431641 C-400.22135212 90.04390877 -408.78700081 98.5833614 -417.375 107.125 C-418.21259354 107.95455704 -418.21259354 107.95455704 -419.06710815 108.8008728 C-426.18418469 115.86611167 -432.78143701 123.11490022 -439 131 C-440.00087035 132.21994497 -441.00439019 133.43772597 -442.01171875 134.65234375 C-464.62470309 161.74816786 -464.62470309 161.74816786 -480 193 C-478.99515655 195.81956074 -477.9712196 198.14669842 -476.5625 200.75 C-476.19213623 201.4601123 -475.82177246 202.17022461 -475.44018555 202.90185547 C-472.49437045 208.40851048 -469.10771632 213.29228017 -465 218 C-464.22527344 218.969375 -463.45054687 219.93875 -462.65234375 220.9375 C-451.58315783 234.19229491 -433.00408533 243.24682604 -416 245 C-390.55767248 246.79791765 -368.85062639 239.62782452 -345.09283447 231.33422852 C-309.9343131 219.07032329 -275.51473452 211.93284268 -240.17578125 228.78515625 C-228.45276689 234.62521979 -219.01360398 242.52151101 -210 252 C-209.40574219 251.81824219 -208.81148438 251.63648438 -208.19921875 251.44921875 C-205.46946313 250.62137684 -202.73502861 249.81024306 -200 249 C-199.10023438 248.72542969 -198.20046875 248.45085937 -197.2734375 248.16796875 C-190.85237447 246.28976155 -184.67642374 245.37449959 -178 245 C-177.02048636 232.26632263 -182.82205722 222.39964832 -190.73828125 212.91796875 C-204.60115315 197.86769883 -226.1069976 190.52057592 -244.2265625 182.109375 C-260.72142933 174.41022666 -276.31072487 166.15607632 -290 154 C-290.83660156 153.29488281 -291.67320312 152.58976562 -292.53515625 151.86328125 C-315.35938883 132.21398056 -329.82218431 102.99610416 -332.625 73.125 C-333.27144632 63.76854012 -333.08640595 54.37305136 -333 45 C-349.65868098 45 -376.26765632 70.84820188 -389 81 Z M-43.37890625 67.28515625 C-57.40705473 81.81505669 -63.48820289 100.07511647 -63.1953125 120.1171875 C-62.13128528 141.27004867 -53.52593648 161.46173011 -46.28564453 181.1550293 C-34.85751482 212.24463837 -30.07727347 246.29337229 -44.1550293 277.37304688 C-49.15834153 287.79694207 -56.31043626 299.76580365 -66.04296875 306.390625 C-68.14467622 307.85671675 -69.07879252 308.58596398 -70 311 C-69.36548573 315.81037738 -68.00031651 320.2820456 -66.58398438 324.91064453 C-65.20719968 329.83644865 -64.65883055 334.93740737 -64 340 C-48.94424848 340.97658929 -37.47333413 336.45915974 -26 327 C-12.8673647 314.81841842 -5.88452461 297.97334608 1.64282227 282.08007812 C8.34565454 267.96426979 15.35589269 254.17577862 24.9375 241.75 C25.44490723 241.08653564 25.95231445 240.42307129 26.47509766 239.73950195 C38.40776846 224.3129302 51.72501834 212.9510631 69 204 C69.58861816 203.69078613 70.17723633 203.38157227 70.78369141 203.06298828 C88.63966757 193.78835282 107.71794965 189.91885657 127.75 189.375 C128.9359375 189.33632813 130.121875 189.29765625 131.34375 189.2578125 C134.22902375 189.16473915 137.11431021 189.07891059 140 189 C117.57677136 129.85922533 55.4074982 75.53157541 1.57421875 46.12890625 C-11.53305553 40.38079963 -34.58046742 58.60472704 -43.37890625 67.28515625 Z M90 248 C88.6696875 248.73669922 88.6696875 248.73669922 87.3125 249.48828125 C59.13678505 266.25763432 47.02535165 297.1091689 33.64941406 325.49072266 C30.54407349 332.01993042 27.2675602 338.13991123 23 344 C22.45085937 344.75667969 21.90171875 345.51335937 21.3359375 346.29296875 C3.98123381 369.31370584 -18.70920566 384.98898603 -47.3515625 389.5390625 C-50.82832065 389.98409969 -54.14801378 389.98095337 -57.6484375 389.8359375 C-67.23599181 389.04588904 -67.23599181 389.04588904 -75.75390625 392.45947266 C-78.71569171 396.26359151 -80.48301816 400.54081209 -82.18701172 405.01953125 C-83.31114238 407.75795406 -84.86376336 410.08539484 -86.5625 412.5 C-87.03816406 413.1909375 -87.51382812 413.881875 -88.00390625 414.59375 C-88.33261719 415.0578125 -88.66132812 415.521875 -89 416 C-76.81113973 426.45129934 -63.66352875 433.02928235 -47.14453125 432.3203125 C-30.97456612 430.67318562 -16.51005274 425.473934 -1.37597656 419.86499023 C10.26309366 415.56003022 21.88026182 411.73955234 34 409 C35.08788818 408.74984131 35.08788818 408.74984131 36.19775391 408.49462891 C69.82972238 401.00803423 104.86375114 405.28435546 134.6875 422.75 C145.15879803 429.47599465 154.00945889 437.54298381 162.07421875 446.98046875 C162.70972656 447.64691406 163.34523438 448.31335938 164 449 C164.66 449 165.32 449 166 449 C179.97239182 392.5095963 194.59938983 301.35452531 163 248 C141.69342784 234.73506178 111.50198285 236.00592519 90 248 Z M-501 250 C-518.33873234 309.30643124 -520.32166457 369.97265138 -506.4375 430.1875 C-506.14464111 431.45924072 -505.85178223 432.73098145 -505.55004883 434.04125977 C-503.5849948 444.53117886 -503.5849948 444.53117886 -497.64453125 452.85546875 C-476.82714255 462.64681985 -453.91895596 464.38274458 -432 457 C-423.58395943 453.69230034 -416.72680535 448.99463606 -410 443 C-409.32453125 442.40703125 -408.6490625 441.8140625 -407.953125 441.203125 C-390.40096229 424.77430071 -379.44153946 399.53036442 -371.01171875 377.40625 C-360.07209209 348.95421688 -339.12255109 326.68876062 -311.34375 314.31640625 C-302.12163612 310.68573759 -292.28117832 307.46801079 -282.296875 308.3515625 C-270.93355962 309.40603469 -270.93355962 309.40603469 -260.92529297 305.18896484 C-257.61071447 300.62123014 -255.67597414 295.57099922 -253.86474609 290.26025391 C-252.66426733 287.12246949 -250.99462718 284.69032496 -249 282 C-251.52883562 275.48503366 -258.86231748 272.39918019 -264.92578125 269.6953125 C-285.56081122 261.87512134 -305.82459119 267.32157098 -325.59814453 275.01025391 C-369.33165081 291.97642095 -413.65208744 300.56603859 -458.375 281.72265625 C-472.97945226 274.99587729 -485.05585206 265.29335291 -496.20581055 253.80932617 C-497.4547437 252.52401024 -498.72530626 251.25977257 -500 250 C-500.33 250 -500.66 250 -501 250 Z M-209.8984375 313.3515625 C-219.28447881 325.18006809 -224.82051978 338.91598135 -223.78515625 354.1640625 C-221.93556026 368.9256 -215.36665389 381.51468195 -204.29296875 391.421875 C-191.46063966 401.18839728 -178.05501335 405.35915457 -162 404 C-146.39317095 401.0685145 -133.79279723 392.97402816 -124.1875 380.3125 C-115.52822314 367.25193585 -113.05204512 351.71849586 -116.0625 336.5 C-119.60476212 322.74671 -127.4275696 311.47703541 -139.171875 303.60546875 C-162.45532838 290.38792822 -191.26125786 293.49449474 -209.8984375 313.3515625 Z M-312 378 C-321.19142018 388.64189347 -327.15717395 400.83072907 -332.86743164 413.54785156 C-349.8352274 451.31265781 -373.08058891 486.07762066 -413 501.875 C-425.80534548 506.73047046 -439.50844837 510.1566161 -453.24609375 510.09765625 C-453.90207047 510.0962413 -454.55804718 510.09482635 -455.23390198 510.09336853 C-457.30181702 510.08783031 -459.36961842 510.07529002 -461.4375 510.0625 C-462.85090988 510.05747699 -464.26432148 510.0529155 -465.67773438 510.04882812 C-469.11852568 510.03788126 -472.55925172 510.02066038 -476 510 C-464.51109334 534.4984039 -448.95487007 556.79202691 -431 577 C-430.36449219 577.7216333 -429.72898437 578.4432666 -429.07421875 579.18676758 C-423.60293491 585.34379381 -417.92149239 591.26477632 -412.09863281 597.08666992 C-410.6279359 598.55955972 -409.16546466 600.04030265 -407.703125 601.52148438 C-401.47173785 607.7903008 -394.94619849 613.52610073 -388 619 C-387.24895996 619.60497314 -386.49791992 620.20994629 -385.72412109 620.83325195 C-375.90894961 628.73537277 -365.87889149 636.06497714 -355.14404297 642.66796875 C-352.90037547 644.06189381 -350.68735238 645.49806621 -348.47265625 646.9375 C-346.98286313 647.87673482 -345.49200995 648.81429071 -344 649.75 C-343.33025146 650.19311523 -342.66050293 650.63623047 -341.97045898 651.09277344 C-337.47663496 653.83884457 -334.34244872 654.43173294 -329.13818359 653.52441406 C-309.25179983 648.64705024 -290.96976345 634.18157673 -279.90625 617.265625 C-269.12028052 598.78802154 -269.0614574 579.25779636 -274.16894531 558.98632812 C-278.26795621 544.2568624 -283.82448328 529.91949206 -289.375 515.6875 C-300.88461986 486.01982875 -303.21066443 453.40100998 -290.2109375 423.82421875 C-284.81676693 412.16399569 -275.83557892 396.91778946 -264 391 C-264.27263672 390.21689453 -264.27263672 390.21689453 -264.55078125 389.41796875 C-267.76284412 380.01238978 -270.37343985 370.96014578 -271 361 C-288.02388973 360.21023192 -300.19526522 365.76701774 -312 378 Z M-236 426 C-245.38901169 435.68664607 -250.3523058 446.30386859 -250.375 459.875 C-250.39949219 460.6071875 -250.42398437 461.339375 -250.44921875 462.09375 C-250.52130056 476.46205754 -245.03489472 490.38279227 -240.05627441 503.63824463 C-232.9539338 522.60342118 -226.14661178 541.73263945 -224 562 C-223.89042969 563.00933594 -223.78085937 564.01867187 -223.66796875 565.05859375 C-220.63353 596.81905266 -227.84499301 629.91239378 -248.3984375 654.91796875 C-253.80887521 661.00246432 -259.57688838 666.67670111 -265.625 672.125 C-268.47882419 674.69735112 -271.29740352 677.26987616 -274 680 C-224.10541103 695.14741618 -170.78175465 701.47458064 -119 693 C-117.93797363 692.82839355 -116.87594727 692.65678711 -115.78173828 692.47998047 C-103.26312145 690.39323352 -90.95508852 687.62025751 -78.6875 684.375 C-77.58978271 684.08592773 -76.49206543 683.79685547 -75.36108398 683.49902344 C-73.82689819 683.0779834 -73.82689819 683.0779834 -72.26171875 682.6484375 C-70.91533325 682.27984619 -70.91533325 682.27984619 -69.54174805 681.90380859 C-65.11869772 680.3310363 -62.5464707 678.90000378 -60.0859375 674.84765625 C-59.49702579 673.59451079 -58.92744724 672.33214271 -58.375 671.0625 C-57.92616455 670.06476563 -57.92616455 670.06476563 -57.46826172 669.046875 C-54.91511597 663.18710439 -53.19866026 657.28097975 -52 651 C-51.6596875 649.2984375 -51.6596875 649.2984375 -51.3125 647.5625 C-49.48790161 626.76207835 -53.68331172 607.38184477 -67 591 C-67.53238281 590.30390625 -68.06476563 589.6078125 -68.61328125 588.890625 C-85.25893995 568.23844299 -114.49473093 557.17220802 -138.28125 547.4140625 C-150.46532228 542.36111971 -160.84130354 535.32020054 -171 527 C-172.20076172 526.04867187 -172.20076172 526.04867187 -173.42578125 525.078125 C-191.37624445 510.15660319 -203.50866597 487.32748157 -206.765625 464.30078125 C-207.29265744 456.87840774 -207.13998864 449.43495229 -207 442 C-208.12277344 441.50371094 -209.24554688 441.00742187 -210.40234375 440.49609375 C-217.97115292 437.08345474 -225.02653865 433.86523812 -231.3359375 428.34765625 C-233.07100331 426.78115829 -233.07100331 426.78115829 -236 426 Z M-129.8359375 444.734375 C-138.95242661 448.38097064 -148.39950631 450.12964475 -158 452 C-158.37900679 465.99293071 -152.93199018 477.81033677 -143.5 488.0625 C-131.25221811 499.49686184 -116.03098855 506.07618185 -101 513 C-75.0167218 525.06903234 -75.0167218 525.06903234 -63 533 C-62.12190674 533.57717773 -62.12190674 533.57717773 -61.22607422 534.16601562 C-32.8906595 553.03056304 -11.74145812 580.23726825 -4.59008789 613.99365234 C-2.04432708 627.47120956 -2.72651672 641.34827552 -3 655 C4.76811356 651.29289056 12.06814092 647.27286311 19.1875 642.4375 C20.08388184 641.83397705 20.98026367 641.2304541 21.90380859 640.60864258 C30.53316413 634.74083368 38.82845463 628.4856359 47 622 C48.00289062 621.21109375 49.00578125 620.4221875 50.0390625 619.609375 C60.93011963 610.88397476 70.89450163 601.20239777 80.79208374 591.38314819 C82.20743571 589.97970612 83.6267301 588.58024342 85.04614258 587.1809082 C91.1354809 581.09922324 96.65542696 574.74077875 102 568 C103.02516228 566.74560984 104.05222386 565.49276701 105.08203125 564.2421875 C117.14053221 549.43380481 127.77379099 533.81344559 137.55810547 517.4140625 C138.52663326 515.7925246 139.51569129 514.18308948 140.52392578 512.5859375 C143.32788615 508.00340427 143.32788615 508.00340427 143.97265625 502.765625 C140.78748302 493.70898786 135.29331812 486.15414167 129 479 C128.00033203 477.85724609 128.00033203 477.85724609 126.98046875 476.69140625 C113.58798177 462.35473652 94.68037064 453.73773608 75.14453125 452.6796875 C48.83192269 451.81324541 24.98620656 461.34501426 0.546875 469.91015625 C-31.28749303 480.97019001 -64.75503123 483.37383382 -96 469 C-107.3640837 463.3121631 -117.73003378 455.28586763 -125.7578125 445.43359375 C-126.16773438 444.96050781 -126.57765625 444.48742187 -127 444 C-128.17481475 443.93810155 -128.17481475 443.93810155 -129.8359375 444.734375 Z " fill="#4AC5DC" transform="translate(670,150)"/>
<path d="M0 0 C1.29572937 -0.00067474 2.59145874 -0.00134949 3.92645264 -0.00204468 C23.87053191 0.01444262 43.4077285 0.56253105 63.1875 3.25 C64.49074219 3.42160645 65.79398438 3.59321289 67.13671875 3.77001953 C159.72286879 16.14162578 247.90114737 54.71690847 326.78125 122.0546875 C328.82894807 123.92287957 330.90149602 125.75077737 332.9921875 127.5703125 C345.09786745 138.14095393 356.38978616 149.35427303 367.1875 161.25 C368.03054688 162.16652344 368.87359375 163.08304688 369.7421875 164.02734375 C375.1212314 169.91823439 380.21995671 176.00979529 385.1875 182.25 C385.69410156 182.88405762 386.20070313 183.51811523 386.72265625 184.17138672 C447.17223482 260.0727636 481.7829199 349.17564362 494.390625 476.36328125 C494.39763931 477.5640329 494.40465363 478.76478455 494.41188049 480.00192261 C494.42927811 483.85548709 494.43573297 487.70889768 494.4375 491.5625 C494.43851212 493.54160873 494.43851212 493.54160873 494.43954468 495.56069946 C494.43208464 515.64476685 493.905534 535.3327772 491.1875 555.25 C491.01589355 556.55179199 490.84428711 557.85358398 490.66748047 559.19482422 C483.43201301 613.34107832 467.50472319 666.66845854 442.25488281 715.18896484 C441.06883176 717.47913937 439.9058462 719.78040268 438.7421875 722.08203125 C428.94328148 741.30366126 417.78465823 759.73207684 405.1875 777.25 C404.6409375 778.01296387 404.094375 778.77592773 403.53125 779.56201172 C396.90373152 788.7802538 390.13036689 797.78263831 382.68359375 806.35546875 C380.36588314 809.04314256 378.14669807 811.78557505 375.9375 814.5625 C366.46655311 826.15107058 355.80274282 836.72086501 345.25 847.3125 C344.3744043 848.19276855 343.49880859 849.07303711 342.59667969 849.97998047 C337.62046388 854.94386482 332.53567828 859.69104818 327.1875 864.25 C326.05779031 865.23475614 324.92885499 866.22040149 323.80078125 867.20703125 C257.73492594 924.52538777 175.67696669 963.35898831 2.4375 986.4375 C1.5951178 986.43656342 0.7527356 986.43562683 -0.11517334 986.43466187 C-76.84957799 986.25176784 -153.52977939 968.82527495 -221.76464844 933.30859375 C-224.01389727 932.14589192 -226.27601855 931.01060362 -228.5390625 929.875 C-249.27759536 919.36393505 -269.16092842 907.13723711 -287.8125 893.25 C-288.52196777 892.7230957 -289.23143555 892.19619141 -289.96240234 891.65332031 C-298.47985947 885.29869766 -306.77308421 878.73620599 -314.82421875 871.80078125 C-317.67249001 869.3695118 -320.57402084 867.02419105 -323.5 864.6875 C-328.12936032 860.92614474 -332.30733504 856.8577755 -336.47265625 852.59375 C-338.5609622 850.50195773 -340.69508997 848.54831464 -342.9375 846.625 C-349.03770868 841.38397564 -354.53777286 835.66663435 -359.7734375 829.5703125 C-361.8477334 827.20990682 -363.97659123 824.91112559 -366.12158203 822.61523438 C-371.95806436 816.36199044 -377.50725988 809.96549382 -382.8125 803.25 C-383.33070313 802.59902344 -383.84890625 801.94804688 -384.3828125 801.27734375 C-392.64279395 790.88636252 -400.47490482 780.31094738 -407.8125 769.25 C-408.24594727 768.60305176 -408.67939453 767.95610352 -409.12597656 767.28955078 C-459.10140029 692.54836378 -487.67550869 605.16555174 -482.72680664 395.86621094 C-471.24873361 339.74433287 -450.69492406 286.15778372 -420.8125 237.25 C-420.34859863 236.48381348 -419.88469727 235.71762695 -419.40673828 234.92822266 C-407.08005789 214.60138416 -393.11463097 195.44079855 -377.8125 177.25 C-377.36583984 176.71842285 -376.91917969 176.1868457 -376.45898438 175.63916016 C-365.98782606 163.20908758 -355.03368281 151.39023819 -343.5625 139.875 C-342.72267578 139.03050293 -341.88285156 138.18600586 -341.01757812 137.31591797 C-336.10911727 132.42006778 -331.07862445 127.75641678 -325.8125 123.25 C-324.60922546 122.19305656 -323.40737764 121.13448645 -322.20703125 120.07421875 C-314.30665965 113.1389029 -306.27075996 106.49659177 -297.8125 100.25 C-297.14379883 99.75532227 -296.47509766 99.26064453 -295.78613281 98.75097656 C-279.98771155 87.1081491 -263.82367508 76.05099739 -246.8125 66.25 C-245.83289307 65.68297363 -245.83289307 65.68297363 -244.83349609 65.10449219 C-187.0093159 31.81304027 -123.41004529 10.91944077 -57.1875 2.9375 C-56.51216217 2.85609772 -55.83682434 2.77469543 -55.14102173 2.69082642 C-50.70251023 2.16373915 -46.26027325 1.69157188 -41.8125 1.25 C-40.2821814 1.09313721 -40.2821814 1.09313721 -38.72094727 0.93310547 C-25.85480819 -0.18848077 -12.90378517 0.00602818 0 0 Z M-104.8125 76.25 C-105.84455566 76.51006836 -106.87661133 76.77013672 -107.93994141 77.03808594 C-132.14699272 83.24658097 -155.5666865 91.75842022 -178.30224609 102.10791016 C-180.59790673 103.15236653 -182.90114329 104.17760944 -185.20703125 105.19921875 C-231.74119488 126.12342517 -272.73036455 158.18814591 -308.6875 194 C-309.48438232 194.79220947 -310.28126465 195.58441895 -311.10229492 196.40063477 C-315.87780939 201.18917382 -320.42263379 206.10695699 -324.8125 211.25 C-325.70149575 212.27111826 -326.59079518 213.29197225 -327.48046875 214.3125 C-344.22167646 233.83093132 -358.81351758 255.08019848 -371.8125 277.25 C-372.22032715 277.94319336 -372.6281543 278.63638672 -373.04833984 279.35058594 C-404.90576324 333.93767198 -424.01027781 396.24599514 -428.8125 459.25 C-428.97878906 461.14878906 -428.97878906 461.14878906 -429.1484375 463.0859375 C-433.1159774 515.9507259 -426.2970496 569.65838037 -410.8125 620.25 C-410.51118164 621.23774414 -410.20986328 622.22548828 -409.89941406 623.24316406 C-392.92220671 678.12715186 -363.95927025 730.24922455 -325.8125 773.25 C-324.58274445 774.66615551 -323.35348098 776.08273869 -322.125 777.5 C-321.02100438 778.75015107 -319.91683694 780.00015043 -318.8125 781.25 C-317.94431641 782.25740234 -317.94431641 782.25740234 -317.05859375 783.28515625 C-311.69334974 789.40636419 -305.99512268 795.17415462 -300.25 800.9375 C-299.4465918 801.74550049 -298.64318359 802.55350098 -297.81542969 803.38598633 C-292.97572301 808.21329113 -288.01324086 812.81549277 -282.8125 817.25 C-281.80315683 818.12734126 -280.79402523 819.00492601 -279.78515625 819.8828125 C-251.08160323 844.4638418 -219.56780493 864.36700312 -185.8125 881.25 C-184.95978516 881.68296387 -184.10707031 882.11592773 -183.22851562 882.56201172 C-136.34143913 906.30912126 -83.86316403 918.34623865 -31.8125 923.25 C-30.65886963 923.36021484 -30.65886963 923.36021484 -29.48193359 923.47265625 C74.68965345 932.88137994 182.53615166 897.32603323 273.4765625 825.89160156 C279.49726467 820.80895903 285.369991 815.56320481 291.1875 810.25 C292.14398437 809.38632812 293.10046875 808.52265625 294.0859375 807.6328125 C302.96535432 799.59283635 311.67994967 791.38089434 319.4609375 782.25390625 C321.40491046 779.99766614 323.42073518 777.81636107 325.4375 775.625 C340.71023448 758.65243335 354.21184957 739.66055251 366.1875 720.25 C366.59919434 719.58355469 367.01088867 718.91710937 367.43505859 718.23046875 C374.98540688 705.91069253 381.66599767 693.1377308 388.1875 680.25 C388.59355469 679.45400391 388.99960937 678.65800781 389.41796875 677.83789062 C413.00497951 631.26763218 426.3004886 578.2009547 430.1875 526.25 C430.27209473 525.22132813 430.27209473 525.22132813 430.35839844 524.171875 C436.35746878 449.76920375 420.81038616 374.53617515 389.1875 307.25 C388.75969238 306.33782715 388.33188477 305.4256543 387.89111328 304.48583984 C378.91183579 285.52642132 368.17233699 267.459874 356.1875 250.25 C355.78466797 249.66847168 355.38183594 249.08694336 354.96679688 248.48779297 C345.181927 234.41138151 334.50548735 221.11945922 323.1875 208.25 C322.38570312 207.33476562 321.58390625 206.41953125 320.7578125 205.4765625 C314.91954365 198.96679947 308.79854398 192.73471557 302.64105225 186.52832031 C301.23082142 185.10618705 299.82457405 183.68010712 298.41845703 182.25390625 C293.12064445 176.94946311 287.66769974 172.05391657 281.81005859 167.3762207 C279.3342278 165.36895852 276.96254595 163.28870797 274.6015625 161.1484375 C270.11454492 157.11988906 265.40108486 153.46948594 260.5625 149.875 C259.25273193 148.89901855 259.25273193 148.89901855 257.91650391 147.90332031 C224.79038661 123.3847768 187.97244692 103.20183395 149.1875 89.25 C147.65053467 88.6938501 147.65053467 88.6938501 146.08251953 88.12646484 C110.18021258 75.28349664 72.26900015 66.90520768 34.1875 64.25 C33.49833496 64.19505371 32.80916992 64.14010742 32.09912109 64.08349609 C-13.64882525 60.45576421 -60.36577936 65.00901402 -104.8125 76.25 Z " fill="#4AC5DC" transform="translate(500.8125,6.75)"/>
<path d="M0 0 C0.9173291 0.45246094 1.8346582 0.90492187 2.77978516 1.37109375 C28.07888617 13.96305905 51.46521226 29.29822411 73.12841797 47.43701172 C74.87907375 48.89901254 76.64283941 50.34338422 78.41015625 51.78515625 C91.99219976 62.99897733 105.22322266 75.52743682 116.0234375 89.46875 C117.87619586 91.8414524 119.82394844 94.10187733 121.81176758 96.36157227 C152.84187425 131.90715142 186.88985951 187.81386881 189.375 236.125 C189 239 189 239 188 240.9375 C184.82556178 242.6239203 181.41932949 242.99757789 178 242 C175.01414597 238.65381664 172.97131874 235.2619381 171.0390625 231.23046875 C170.4929834 230.10721191 169.9469043 228.98395508 169.38427734 227.82666016 C169.09848816 227.23427551 168.81269897 226.64189087 168.51824951 226.03155518 C158.93238484 206.24216472 147.86419506 187.54986551 135.6875 169.25 C135.27111267 168.6236969 134.85472534 167.9973938 134.42572021 167.35211182 C128.87414394 159.0273543 123.09130657 150.94174512 117 143 C116.49090088 142.33291016 115.98180176 141.66582031 115.45727539 140.97851562 C103.74381455 125.71571806 90.97309966 111.39252571 77.875 97.3125 C77.30088379 96.6944751 76.72676758 96.0764502 76.13525391 95.43969727 C70.43357496 89.33402017 64.62160947 83.46015989 58.2890625 78.0078125 C56.0648286 76.05686331 53.88927541 74.05934247 51.72094727 72.04663086 C45.67417724 66.44078118 39.46337078 61.12556586 33 56 C32.38479492 55.50693359 31.76958984 55.01386719 31.13574219 54.50585938 C7.70010142 35.75281156 -17.28935535 18.43992488 -44.0859375 4.8046875 C-45.08362656 4.29655266 -45.08362656 4.29655266 -46.10147095 3.77815247 C-49.30708775 2.15370538 -52.52317048 0.55663764 -55.76025391 -1.00415039 C-56.91187012 -1.57383545 -58.06348633 -2.14352051 -59.25 -2.73046875 C-60.26578125 -3.21926514 -61.2815625 -3.70806152 -62.328125 -4.21166992 C-65.56763708 -6.37992888 -67.09916429 -8.62262227 -69 -12 C-69.48934873 -15.00599937 -69.5234522 -16.26716692 -67.75 -18.75 C-53.35172921 -29.03447913 -13.80398943 -6.83149834 0 0 Z " fill="#4AC5DC" transform="translate(813,21)"/>
<path d="M0 0 C3.34571049 2.75169087 5.05354545 5.68319797 6.890625 9.56640625 C7.426875 10.67814209 7.963125 11.78987793 8.515625 12.93530273 C8.79728516 13.52560272 9.07894531 14.11590271 9.36914062 14.72409058 C26.69098399 50.87587709 49.32331229 84.27866503 75 115 C75.48645996 115.58555664 75.97291992 116.17111328 76.47412109 116.77441406 C90.11405562 133.14971592 104.76895719 149.46266355 121.01953125 163.30078125 C123.32669952 165.28030432 125.56646782 167.3264212 127.8125 169.375 C132.54749792 173.63721447 137.39319126 177.72329649 142.37402344 181.6953125 C143.49197846 182.5923623 144.60432999 183.49642623 145.71191406 184.40625 C173.57194166 207.27797763 205.12607225 226.75013882 237.61547852 242.23486328 C238.55705811 242.68845215 239.4986377 243.14204102 240.46875 243.609375 C241.29826172 244.00092773 242.12777344 244.39248047 242.98242188 244.79589844 C245 246 245 246 247 249 C247.4375 252.4375 247.4375 252.4375 247 256 C245.01171875 258.296875 245.01171875 258.296875 242 260 C238.85837243 259.86517966 236.39362193 259.52276398 233.375 258.8125 C232.50891113 258.62107422 231.64282227 258.42964844 230.75048828 258.23242188 C179.2827971 246.19890166 132.24191042 217.27871383 93.76953125 181.55078125 C91.54772682 179.5044649 89.29966262 177.51935577 87 175.5625 C78.70837876 168.36142602 71.09790909 160.36697391 64 152 C62.71416016 150.54787109 62.71416016 150.54787109 61.40234375 149.06640625 C47.98798545 133.85096244 36.43850613 117.37444169 26 100 C25.60506348 99.34531738 25.21012695 98.69063477 24.80322266 98.01611328 C9.32457352 72.1066378 -12.01661756 34.25757213 -10 3 C-7.83165681 -1.08158719 -4.19361486 -0.51500533 0 0 Z " fill="#4AC5DC" transform="translate(10,738)"/>
</svg>
