<?xml version="1.0" encoding="UTF-8"?>
<svg id="Layer_1" xmlns="http://www.w3.org/2000/svg" version="1.1" viewBox="0 0 2157 2500">
  <!-- Generator: Adobe Illustrator 30.1.0, SVG Export Plug-In . SVG Version: 2.1.1 Build 136)  -->
  <defs>
    <style>
      .st0 {
        fill: none;
      }

      .st1, .st2, .st3 {
        fill: #010101;
      }

      .st4 {
        stroke: #010101;
        stroke-linejoin: round;
        stroke-width: 10.86px;
      }

      .st4, .st5 {
        fill: #8ac640;
      }

      .st6 {
        fill: #0a1825;
      }

      .st2 {
        opacity: .3;
      }

      .st2, .st3 {
        isolation: isolate;
      }

      .st3 {
        opacity: .4;
      }

      .st7 {
        fill: #f0efef;
      }
    </style>
  </defs>
  <path class="st1" d="M344.62,1100.72c-71.16,33.47-259.51,184.16-295.79,228.81C11.16,1374.17,0,1304.41,39.06,1188.61c30.69-93.48,108.83-220.45,239.98-329.27,76.73-62.79,245.56-153.47,348.8-206.49,20.93-11.17,291.6-125.57,532.98-182.77,20.93-5.58-25.11,34.88-32.09,57.2-36.28,106.03-760.4,560.87-760.4,560.87l-23.71,12.56ZM1364.51,2380.12c12.56,75.34,1.4,80.92-76.73,90.69-78.14,9.77-135.34-19.54-156.26-39.06-20.93-19.54-25.11-62.79-4.19-101.85,12.56-25.12,25.12-33.49,32.1-64.18,6.97-29.3,12.56-36.28,18.13-47.43,5.58-9.77,6.98-19.54,8.37-87.9,1.4-68.36,0-196.73,6.98-251.13,6.98-55.81,248.35,25.11,248.35,25.11,0,0-57.21,142.31-72.55,177.19-15.35,34.89-13.95,101.85-13.95,115.8s-5.58,41.85-9.77,43.25c-4.19,1.39,13.95,37.67,5.58,58.6-5.58,19.54,12.56,69.77,13.95,80.92h0ZM1456.6,246.84c-8.38-53.02,0-157.67,11.16-174.4,34.89-47.44,219.05-53.02,258.12,2.79,16.74,25.11,15.34,83.71,12.56,121.39-2.79,37.67-12.56,118.59-13.95,145.11-1.39,19.54-203.7,50.22-248.35-2.79-12.56-13.95-19.54-92.08-19.54-92.08h0ZM1866.79,2244.78c85.11,61.39,150.68,72.55,193.93,94.88,43.25,22.33,32.09,65.58-40.46,78.14-58.6,11.16-150.68-11.17-212.07-11.17s-198.12,6.98-234.4-18.13c-41.85-29.3-23.72-83.72-23.72-83.72,11.17-30.69,39.06-99.06,30.69-154.87s-19.54-86.5-40.46-138.13c-20.93-51.62-36.27-178.58-16.73-185.56s13.95,0,39.06,5.58c25.11,5.58,53.02,13.95,107.43,13.95s114.41-8.38,135.34-12.56c20.93-4.19,37.67-8.38,30.69,34.88-6.97,43.25-27.9,124.17-29.3,186.96-1.39,62.79-1.39,135.34,2.79,147.89,4.18,12.56,34.88,26.51,57.2,41.85h0Z"/>
  <path class="st5" d="M1568.22,386.36c-153.47,132.55-450.65,168.82-891.53,339.04-113.01,43.25-414.38,173.01-486.93,308.34,244.16-140.91,334.85,53.02,354.38,252.53,18.13,186.96,111.62,284.63,351.59,279.04,246.96-5.58,322.3,138.13,390.66,306.95,132.54-645.99,344.62-771.55,481.34-881.77,290.21-235.8-66.96-651.57-199.51-604.13h0Z"/>
  <path class="st5" d="M1568.22,386.36c-368.33,128.36-732.49,160.45-1160.81,424.15-101.85,62.79-316.71,205.09-358.57,477.16,156.26-173.01,517.62-390.66,959.9-528.78,223.23-69.77,386.48-115.8,584.6-192.54-13.95-89.3-13.95-124.18-25.11-179.99h0Z"/>
  <path class="st1" d="M2038.4,1150.94s-26.51,90.69-79.53,119.99c0,0-39.06,13.95-117.19-29.3-22.32-12.56-39.06-55.81-37.67-69.77,1.4-33.49,22.32-48.83,22.32-48.83,0,0,22.33-37.67,48.83-36.28,26.52,1.39,71.16,5.58,85.12-6.98,12.55-13.95,80.92,25.11,78.12,71.16h0ZM1469.16,273.35s-5.58,71.16-15.34,115.8c-1.4,8.38-43.25,12.56-73.95,25.12,58.6,167.42,411.59,166.03,457.63,83.71-22.32-15.34-66.97-39.06-87.9-47.43-20.93-8.38-19.54-6.98-20.93-46.04-1.39-39.07-4.19-111.62-6.98-131.15-2.79-19.54-219.05-19.54-252.53,0h0Z"/>
  <path class="st7" d="M1483.11,273.35s0,40.46-4.19,79.53c-1.39,18.14-2.79,29.3-5.58,43.25-1.4,8.38,47.43,41.85,61.39,115.8,66.97,149.28,221.84,75.34,286.02,4.19-22.32-15.35-58.6-36.28-100.45-53.02-20.93-8.38-11.17-26.51-12.56-65.57-1.4-39.06-6.98-96.27-9.77-117.2-2.8-20.93-181.38-26.51-214.87-6.97h0Z"/>
  <g>
    <path class="st1" d="M1469.16,273.35s-1.4,25.12-5.58,54.41c18.13,18.13,41.85,43.25,60,58.6,12.56,11.17,43.24,9.77,71.16,9.77,25.11,0,47.43,2.79,57.2-2.79,22.33-11.17,54.41-39.06,72.55-60-1.39-25.11-2.79-48.83-4.18-60-1.41-19.54-217.67-19.54-251.15,0Z"/>
    <path class="st1" d="M1596.13,379.38c-16.75,0-36.28-1.39-51.63-4.19-6.98-1.39-13.95-5.58-19.54-8.37-9.77-6.98-19.54-15.34-30.69-23.72-22.33-16.74-23.72-26.51-23.72-30.69,9.77-87.9-2.79-161.85-2.79-161.85,0,0-9.77-37.67,43.25-47.44s85.11-11.16,85.11-11.16c0,0,33.49,0,85.11,11.16,53.02,9.77,43.25,47.44,43.25,47.44,0,0-12.56,73.94-2.79,161.85,0,4.18-1.39,13.95-23.72,30.69-19.54,13.95-34.88,29.3-50.22,32.09-15.35,2.79-34.89,4.19-51.62,4.19Z"/>
    <path class="st1" d="M1596.13,55.7c-92.08,0-110.23,25.11-136.74,53.02-5.58,6.97-1.4,48.83,8.38,138.13h12.56s-8.38-25.12-6.98-54.41,6.98-27.9,2.79-34.88c-5.58-8.38-16.74-22.33,8.38-36.28,25.11-13.95,64.18,11.16,111.62,12.56,47.43-1.4,87.9-26.51,113.01-12.56,25.11,13.95,13.95,27.9,8.38,36.28-5.58,8.37,1.39,5.58,2.79,34.88,1.39,29.3-6.98,54.41-6.98,54.41h12.56c8.37-89.29,13.95-128.36,9.77-135.34-23.72-30.69-47.43-54.41-139.52-55.81ZM2038.4,1155.12s-26.51,85.11-78.13,114.41c-11.17-5.58-9.77-13.95-19.54-26.51-2.79-4.18-12.56-6.98-16.74-11.16-4.19-4.19-2.79-11.17-9.77-16.74-5.58-5.58-9.77-1.4-15.35-5.58-5.58-5.58-6.98-12.56-11.16-16.73-2.79-2.79-13.95-4.19-16.74-6.98-6.98-6.98-68.36-19.54-65.57-33.49,5.58-20.93,16.74-36.28,16.74-36.28,0,0,26.51-39.06,53.01-37.67,26.51,1.4,51.63,6.98,65.58-5.58,15.35-13.96,101.86,37.67,97.66,82.31h0Z"/>
    <path class="st1" d="M1857.03,538.44s87.9-20.93,147.89,36.28c60,58.6,55.81,131.15,37.67,175.79,15.34,18.14,43.25,68.36,22.32,128.36,92.08,78.13,51.62,198.12-30.69,277.65,0,0-19.54-72.55-97.66-76.74,2.79-27.9-72.55-50.23-37.67-122.78-53.02-12.56-51.62-48.83-59.99-93.47-6.98-44.65,18.13-325.08,18.13-325.08h0Z"/>
  </g>
  <path class="st7" d="M1824.94,577.51s101.85-51.62,161.85,6.98c59.99,58.6,43.24,122.78,25.11,167.42,15.34,18.13,51.62,69.77,29.3,131.15-4.19,13.95-34.88,13.95-57.21,50.23,55.81-32.1,90.69-23.72,103.25,16.73,19.54,62.79-23.72,138.13-61.39,179.99,0-1.4-1.4-2.79-1.4-4.19-5.58,20.93-12.56,61.39-54.41,106.03-20.93,22.32-37.67,19.54-61.39,13.95-27.9-6.98-37.67-19.54-76.73-40.46-22.32-12.56-9.77-27.91-9.77-40.46,0-2.79,2.79-6.98,6.98-12.56,2.79-6.98,11.16-18.13,23.71-30.69,0,0,18.14-25.11,44.65-23.72,26.51,1.4,54.41-4.18,61.39-11.16,0-48.83-55.81-50.23-36.28-133.94,1.4-4.19,8.38-11.17,30.69-13.95-33.49-6.98-48.83-8.38-72.55-30.69-16.74-15.34-29.3-34.88-33.49-59.99-8.36-43.25-22.32-270.67-22.32-270.67h0Z"/>
  <path class="st1" d="M1530.55,489.61c-8.37-11.17-51.62-66.97-133.94-89.29-23.72-6.98-39.06,12.56-62.78,26.51-6.98-4.19-37.67-18.14-54.41-8.38s-27.9,19.54-44.65,26.51c-8.38-4.19-30.69-4.19-48.83,2.79-18.14,5.58-46.04,18.14-72.55,54.41-16.74,60,295.78,15.34,295.78,15.34l121.39-27.89Z"/>
  <path class="st5" d="M1533.34,489.61c-44.65-15.35-37.67-66.97-136.74-75.34-19.54-1.4-32.09,13.95-46.04,23.71,6.98,6.98,13.95,18.14,18.14,29.3-12.56-13.95-34.88-32.09-57.21-36.28-20.93-4.18-34.88,11.17-57.2,22.33,4.18,4.18,8.37,11.16,13.95,19.54-19.54-12.56-33.48-16.74-59.99-6.98-18.14,5.58-53.02,20.93-79.53,58.6-16.74,60,281.83-6.98,281.83-6.98l122.79-27.9Z"/>
  <path class="st1" d="M1795.64,511.93s0-15.35-1.4-29.3c0-2.79-11.16-9.77-11.16-12.56l-2.79-2.79s22.32-12.56,39.06-5.58c18.13,5.58,27.9,29.3,27.9,29.3,32.09-11.16,34.88,1.4,50.23,18.14,33.49-6.98,37.67,5.58,58.6,36.28,0,0-25.11-4.19-73.94,4.18-47.44,6.97-86.51-39.06-86.51-37.67h0Z"/>
  <path class="st5" d="M1790.06,504.95s8.37-6.98,5.58-8.38c15.34-8.37,36.28-18.13,46.04,8.38,32.09-11.17,36.28,4.19,51.62,20.93,39.06-18.14,41.85,4.18,44.65,13.95-12.56,0-30.69,1.4-55.81,4.19-47.43,6.98-93.48-40.46-92.08-39.06Z"/>
  <path class="st1" d="M1315.69,470.08s79.53,27.9,146.5,23.71c66.97-5.58,181.38-11.16,242.76,25.12,0,0,62.79-22.33,121.39-6.98,58.61,15.34,166.03,115.8,133.95,221.84-2.79,6.98-20.93,18.14-41.86,25.12,0,0,11.17,47.43-8.37,86.5-19.54,37.67-62.79,110.23-64.18,210.68-1.39,16.74-4.18,51.62-6.97,68.36-108.83-4.18-276.25-44.65-440.89-41.85,1.39-18.13,2.79-29.3,4.19-47.43h4.18c-8.37-46.04-11.16-69.77-19.54-104.64-53.02-33.48-108.83-72.55-156.26-146.5-46.04-73.95,85.11-313.92,85.11-313.92h0ZM1854.24,1223.49s86.51,309.74-15.34,439.5c0,0,15.34,59.99-19.54,124.17-5.58,27.9-12.56,53.02-16.74,80.92-18.14,115.8-48.84,164.63-57.21,350.2l-83.72-1.39s-9.77-133.94-39.06-205.1c-16.73-40.45-82.32-94.88-79.52-149.28,2.79-41.86,11.16-76.74,82.32-132.55,5.58-80.92-75.35-157.66-62.79-459.03l291.6-47.43Z"/>
  <path class="st7" d="M1829.13,1210.93c22.32,142.31,73.94,352.99-19.54,456.23,5.52,26.18,5.99,53.17,1.39,79.53-2.79,16.74-8.37,34.88-15.34,54.41-13.95,33.49-19.54,82.32-23.72,111.62-18.14,115.8-18.14,121.39-26.51,306.95l-83.72-1.4s-9.77-133.94-39.06-205.09c-16.73-40.46-51.62-75.34-54.41-129.76-2.79-41.85,26.51-125.56,96.27-122.78-4.19-168.82-82.32-135.34-103.25-486.93l267.88-62.79ZM1315.69,470.08s30.69,9.77,64.18,12.56c33.49,2.79,69.77,0,101.85-1.4,66.97-5.58,161.85-12.56,224.63,23.72,0,0,34.88-11.17,72.55-8.38,16.74,1.4,33.49,15.35,53.02,20.93,61.39,15.34,119.99,117.19,93.47,209.28-2.79,6.98-22.32,0-44.65,6.98,4.18,19.54,6.98,64.18-15.35,111.62-23.71,47.44-54.41,108.83-48.83,226.03-146.5-6.98-212.07-16.74-357.18-23.72-12.56-51.63-20.93-103.25-22.32-129.76,19.54-9.77,30.69-18.13,46.04-34.88-41.85,6.98-58.6,4.19-83.72-9.77-25.11-13.95-69.76-58.6-92.08-87.9-2.79-2.79-18.13,43.24-53.01,44.65-12.56-18.14,40.45-69.77,30.69-89.29-34.87-71.16,30.71-270.68,30.71-270.68h0Z"/>
  <path class="st1" d="M1840.28,1095.13s2.79,50.23,2.79,62.79c0,13.95,11.17,55.81,12.56,75.34-15.34,26.51-82.31,86.51-203.7,108.83-119.99,25.11-279.04-163.24-279.04-163.24,4.19-18.14,18.14-71.16,27.91-99.06,1.4-2.79,4.19-9.77,4.19-12.56,12.56-18.14,435.3,27.9,435.3,27.9Z"/>
  <path class="st7" d="M1809.59,1099.32c0,34.88,5.58,60,9.77,82.32,6.97,40.46,18.13,66.97,18.13,93.48,0,80.92-106.03,66.96-195.34,69.76-119.99,25.12-221.84-163.24-221.84-163.24,8.37-32.09,13.95-68.36,26.51-99.06,1.39-16.74,4.19-37.67,5.58-47.43,170.22,0,290.21,9.77,359.97,16.73,2.79,15.35,0,41.86-2.78,47.44h0Z"/>
  <path class="st1" d="M1675.64,1279.3s-73.94-164.63-295.79-115.8c-53.01,149.28-124.17,320.9-78.13,506.46-46.04,62.79-99.06,97.67-99.06,213.47s5.58,135.34,5.58,135.34l163.24,8.38s53.02-68.36,73.94-142.31c5.58-20.93,11.17-58.6,6.98-101.85,5.58-8.37,29.3-27.9,32.09-65.57,0,0,79.53-41.85,125.57-143.7,43.26-92.1,32.09-171.63,65.57-294.41h0Z"/>
  <path class="st7" d="M1675.64,1279.3c-4.18-15.34-59.99-166.03-266.48-121.39-121.38,323.69-76.73,457.63-58.6,516.23-82.32,104.64-119.99,126.96-103.24,339.04h108.83c50.22-79.53,61.39-108.83,64.18-213.47,0-4.19-15.34,8.37-26.51,22.32,8.38-43.25,32.09-51.62,50.23-78.13,8.37-11.17,15.34-27.91,15.34-50.23,97.66-65.57,133.94-147.89,154.87-233,16.75-58.59,36.28-154.87,61.39-181.38h0Z"/>
  <g>
    <path class="st1" d="M1331.03,1054.67s37.67,1.39,71.16,12.56c32.09,11.16,32.09,18.13,44.65,32.09s43.25,34.88,37.67,55.81c-2.79,11.17-9.77,13.95-19.54,23.72-4.19,4.19-34.89,37.67-41.86,41.85-4.19,2.79-9.77,6.98-13.95,9.77l-20.93,13.95c-13.95,6.98-23.72,11.17-39.06,9.77,0,0-34.88-1.4-57.21-25.11,0,0-2.79-11.17,2.79-16.74,0,0-29.3-25.12-37.67-41.86-8.38-16.73-8.38-40.45-2.79-53.01,2.79-12.57,57.2-47.45,76.73-62.79h0ZM1365.92,2412.21l-4.19,34.89s-12.56,15.34-106.03,13.95c-94.88-1.4-119.99-30.69-128.36-46.04l-5.58-36.28s18.14-26.51,22.32-26.51c30.69,2.79,135.34,44.65,207.89,55.81,6.96,0,8.35,2.79,13.94,4.19h0ZM1568.22,2341.06c0,15.34-1.4,15.34-1.4,30.69,16.74,12.56,58.61,19.54,138.13,18.13,115.8-2.79,223.23,34.89,354.38,12.56l1.4-25.11-12.56-1.39-464.61-37.67-15.34,2.79Z"/>
    <path class="st1" d="M1670.07,2389.89h34.88c75.35-2.79,146.5,13.95,223.23,18.14,40.46-1.4,90.69-11.17,86.51-40.46l-396.24-33.49c-23.72,26.51-5.59,48.83,51.62,55.81h0ZM1215.23,1802.5c12.56,8.37,97.66,58.6,235.79,51.62-2.79,26.51-1.4,78.14-62.79,168.82-30.69,44.65-57.21,122.78-62.79,221.84,1.4,22.32,13.95,41.85-2.79,71.16,5.58,18.13,27.9,54.41,39.06,76.73,11.16,22.33,16.74,47.44-57.21,48.84-75.34,1.39-196.73-6.98-179.98-65.57,8.38-30.69,32.09-62.79,34.89-75.35,2.79-12.56,2.79-50.22,26.5-75.34,20.93-69.76,13.95-136.73,9.77-199.51-6.98-65.58-8.38-170.22,19.53-223.23h0ZM1344.98,665.4c99.06-132.55,15.34-238.58-143.7-206.49-64.18,12.56-128.36,57.21-132.55,138.13-20.93,2.79-68.36,5.58-92.08,92.08-18.13,66.97-27.9,79.53-60,113.01-20.93,23.72,1.4,72.55,16.74,107.44,51.63,119.99,210.68,131.15,318.11,221.84,36.28-9.77,73.94-50.22,85.11-76.73-90.69-107.44-71.16-149.29-107.44-205.1,39.07-13.96,128.37-68.37,115.81-184.17h0Z"/>
  </g>
  <path class="st7" d="M1325.45,657.03c5.58-8.38,15.34-26.51,19.54-33.49,1.4-1.4,16.74,25.11,18.14,23.72,37.67-61.39,47.43-150.69,4.18-159.06-9.77-1.4-27.9-5.58-43.25-11.17-27.9-9.77-53.01-9.77-97.66-1.39-61.39,11.16-122.78,55.81-122.78,119.99,0,4.19,43.24,16.74,55.81,68.37-20.93-29.3-57.21-61.39-100.46-33.49-46.04,29.3-22.32,96.27-83.71,166.03-20.93,23.72-18.14,51.63,4.18,107.43,36.28,87.9,207.89,135.34,301.37,219.05,22.32-9.77,37.67-32.09,48.83-48.83-62.79-65.57-87.9-126.97-106.03-171.61-22.32-51.62-47.44-80.92-96.27-119.99,25.12,9.77,44.65,19.54,55.81,27.91,12.56,8.37,30.69,9.77,47.44,4.19,60-20.91,92.1-104.63,94.88-157.64h0Z"/>
  <path class="st1" d="M1932.37,679.36c-4.19,53.02-43.25,26.51-64.18,16.74-41.86-18.14-83.72-30.69-132.55-30.69s-111.62,4.19-166.03,18.14c-75.34,20.93-97.67,19.54-131.15,2.79-33.48-18.14-92.07-62.79-92.07-62.79,0,0-1.4,13.95,12.56,32.09,18.13,22.32,58.6,50.23,113.01,68.36,26.51,8.38,47.44,2.79,71.16-2.79,124.17-30.69,255.32-36.28,365.54,30.69,5.58,2.79,25.12-5.58,33.49-18.14,11.15-18.13-9.77-54.41-9.77-54.41Z"/>
  <path class="st6" d="M1297.55,1210.93c11.16,6.98,25.11,11.17,40.45,23.72,0,0-12.56,0-18.13-5.58-6.98-4.19-20.93-16.74-22.32-18.15Z"/>
  <path class="st7" d="M1700.76,104.53c-4.19-12.56-34.89-34.89-106.03-34.89-76.74,0-99.06,23.72-100.45,36.28,0,4.19-5.58,48.84-6.98,66.97,0,0,0,22.32,1.39,55.81,1.4,22.32,6.98,34.88,9.77,64.18,2.79,30.69,11.17,50.22,26.51,75.34,6.98,4.18,12.56,8.37,19.54,9.77,27.91,5.58,76.74,6.97,103.25,0,15.34-4.19,34.88-30.69,39.06-54.41,5.58-29.3,11.16-50.23,12.56-68.36,2.79-18.13,4.19-58.6,5.58-69.77,4.19-30.69-2.79-78.13-4.18-80.92h0Z"/>
  <path class="st1" d="M1554.27,1829.01s73.95,32.09,256.72,4.19c0,0-51.62,259.51-27.9,389.26,0,0,23.71,33.49,199.51,97.66,0,0,78.13,19.54,75.34,58.61,0,0,2.79,8.37-92.08,5.58s-184.17-19.54-246.96-19.54-129.76,2.79-140.91-15.34c-12.56-16.74,2.79-60,20.93-85.12,19.54-26.5,13.95-46.04,12.56-93.47-4.2-124.17-99.08-252.53-57.22-341.83h0Z"/>
  <path class="st5" d="M1538.92,1852.73c-9.77,13.95,1.39,66.96,15.34,118.59,13.95,51.62,44.65,82.32,51.63,167.42,6.97,83.71,8.37,94.88-15.35,143.7s-30.69,93.48,51.62,94.88,126.97-1.4,210.68,11.17c83.72,12.56,113.01,16.74,159.06,9.77s55.81-22.33,36.28-36.28c-19.54-13.95-100.46-29.3-135.34-57.21-33.49-25.11-128.36-66.97-129.75-78.13-4.19-37.67-5.58-174.4,1.39-219.05,6.98-44.65,16.74-108.83,19.54-125.57s16.74-33.49-6.98-27.91c-23.71,5.58-113.01,18.14-179.98,13.95-66.97-4.18-73.94-19.53-78.14-15.34h0Z"/>
  <path class="st2" d="M1586.36,2283.85c23.71,11.16,58.6,19.54,85.11,19.54,0,0-9.77,46.04,5.58,73.94,15.34,27.91-111.62,11.17-111.62,11.17l-5.58-99.06,26.51-5.58ZM1956.09,2403.84c22.32-6.98,37.67-32.09,19.54-55.81-19.54-23.72-36.28-27.91-11.17-29.3,25.12-1.4,117.2,54.41,117.2,54.41l-47.44,43.25-78.13-12.56ZM1534.73,1907.14c32.09,11.17,80.92,13.95,122.78,12.56,41.85-1.39,104.64-6.98,145.11-20.93,40.45-13.95,23.71,15.34,23.71,15.34l-22.32,20.93s-53.02,20.93-139.52,19.54c-101.85-1.4-132.55-12.56-132.55-12.56l2.79-34.89ZM1537.52,1976.91c32.1,11.17,80.92,13.95,122.78,12.56,41.85-1.39,97.66-1.39,138.13-16.74,16.74-5.58,6.98,18.14,6.98,18.14l-6.98,12.56s-54.41,19.54-139.52,18.13c-101.85-1.39-119.99-9.77-119.99-9.77l-1.4-34.87Z"/>
  <path class="st0" d="M1554.27,1829.01s121.39,43.25,258.12,13.95c0,0-53.02,249.74-29.3,378.1,0,0,23.71,33.48,199.51,97.66,0,0,78.13,19.54,75.34,58.6,0,0,2.79,8.38-92.08,5.58-94.88-2.79-184.17-19.54-246.96-19.54s-129.76,2.79-140.91-15.34c-12.56-16.74,2.79-60,20.93-85.11,19.54-26.51,13.95-46.04,12.56-93.48-4.2-122.78-99.08-251.13-57.22-340.43h0Z"/>
  <path class="st0" d="M1554.27,1829.01s121.39,41.85,258.12,12.56c0,0-53.02,251.14-29.3,379.5,0,0,23.71,33.48,199.51,97.66,0,0,78.13,19.54,75.34,58.6,0,0,2.79,8.38-92.08,5.58-94.88-2.79-185.57-29.3-246.96-19.54-65.57,11.17-129.76,6.98-140.91-15.34-9.77-18.13,2.79-60,20.93-85.11,19.54-26.51,13.95-46.04,12.56-93.48-4.2-122.78-99.08-251.13-57.22-340.43h0Z"/>
  <path class="st1" d="M1445.44,998.87c0,9.77,108.83,64.18,168.82,75.34,60,11.16,185.57,0,205.1-4.19l-2.79,19.54s-149.28,22.32-263.69-8.37c-114.41-30.69-101.85-37.67-101.85-37.67l-5.58-44.65Z"/>
  <path class="st7" d="M1212.43,2188.98c16.74,8.38,76.74,23.72,115.8,15.35,5.58-1.4,0-96.27,15.35-139.52,22.32-60,58.6-108.83,75.33-214.86-58.6-5.58-125.56-20.93-160.45-32.1-44.64,136.74-29.29,253.93-46.04,371.13h0ZM1305.92,2276.88c9.77,2.79,16.74,13.95,19.54,6.98,5.58-12.56-9.77-36.28-11.17-53.02v-1.4c-12.56-11.16-97.66-12.56-92.08-6.98-9.77,18.14-25.11,15.35-30.69,51.63-2.79,18.13,19.54,2.79,40.45,1.39-37.67,25.11-80.92,57.21-87.9,85.11-8.37,39.06,5.58,50.23,47.44,71.16,36.28,8.37,79.53,9.77,113.01,8.37,37.67-6.98,44.65-25.11,33.49-50.23-16.75-37.67-27.91-86.51-32.1-113.01h0Z"/>
  <path class="st1" d="M1321.26,464.49c46.04,26.51,110.23,19.54,133.94,18.14,5.58,0,61.39-9.77,64.18-8.38,5.58,1.4,5.58,5.58,5.58,5.58,0,0-20.93,11.16-68.36,13.95-44.65,2.79-97.66,0-126.96-13.95-34.89-15.34-8.38-15.34-8.38-15.34h0ZM1795.64,491c8.37,5.58,62.79,26.51,86.51,51.62,20.93,22.33,9.77,20.93,5.58,15.35-5.58-6.98-48.83-36.28-65.57-43.25s-37.67-19.54-37.67-22.32,11.17-1.4,11.17-1.4h0Z"/>
  <path class="st7" d="M1314.28,1070.01c40.46-2.79,82.32,6.98,108.83,34.88,13.95,13.95,36.28,29.3,33.49,43.25,0,4.19-8.38,15.35-15.34,23.72-4.19,5.58-16.74,18.13-20.93,22.32-5.58,4.19-25.11,19.54-29.3,22.32-4.19,2.79-9.77,9.77-13.95,11.17-13.95,6.98-29.3,1.4-43.25-5.58-13.95-6.98,2.79-8.38-12.56-19.54-37.67-26.51-58.6-44.65-43.25-96.27,1.39-9.77,16.73-20.93,36.26-36.28h0Z"/>
  <path class="st3" d="M958.51,750.51c-125.57,50.23-445.08,209.29-535.76,258.12,75.34,47.43,110.22,161.84,121.39,277.64,1.39,11.17,2.79,20.93,4.19,32.09,1.39,9.77,2.79,16.74,4.18,20.93,0,1.4,0,4.19,1.4,5.58,82.32-224.63,376.7-461.81,387.87-479.95,5.58-8.37-6.98-44.65,12.56-79.52,25.12-44.66,73.96-64.2,4.19-34.89h0ZM1257.09,1803.9c64.18-128.36,65.57-251.14,64.18-394.85,0-60,43.25-145.11,20.93-121.39-83.72,93.47-294.39,269.28-446.47,279.04,213.47-6.97,297.18,100.46,361.36,237.19Z"/>
  <path class="st1" d="M299.97,1127.22c79.53-57.2,491.12-276.25,590.18-306.95,99.05-32.09,68.36-69.77,68.36-69.77,0,0-401.82,173.01-641.8,322.3"/>
  <path class="st3" d="M1471.95,724c-32.09-12.56-57.2,25.12-48.83,61.39,8.38,36.28,83.72,76.73,79.53,209.28-2.79,108.83-26.51,153.47-26.51,153.47l-53.02-66.96s-8.37-150.69-26.51-173.01c-18.13-22.32-75.34-62.79-97.66-83.71-22.32-20.93,25.11-48.83,22.32-87.9-2.79-37.67,23.72-113.01,23.72-113.01l126.96,100.45ZM1665.88,1318.36c-2.79,104.64,20.93,259.51,30.69,333.46,9.77,73.94,22.32,79.53,0,113.01-22.32,32.09-51.62,85.11-51.62,85.11l-96.27-8.38s76.74-97.66,80.92-115.8c4.19-18.13-39.06-156.26-39.06-156.26l75.35-251.15ZM1480.32,341.72c19.54,43.24,43.25,62.78,80.92,75.34,22.32,8.37,110.22,19.54,145.11-19.54,15.34-18.14,5.58-66.97,5.58-66.97l-79.53,64.18-107.43-19.53-12.56-32.09-32.08-1.39Z"/>
  <path class="st4" d="M1488.69,437.98c36.28,23.72,126.97,46.04,152.08,50.23,25.11,5.58,65.57-26.51,85.11-34.88,20.93-9.77,57.21-15.35,99.06,22.32,4.19,4.19-9.77,22.32-9.77,22.32-1.4-1.4-9.77-1.4-20.93-6.98-11.16-5.58-20.93-9.77-37.67-8.37-69.77,8.37-80.92,32.09-142.31,18.13s-76.74-25.11-136.73-22.32"/>
  <path class="st5" d="M1476.13,442.17c46.04,19.54,135.34,40.46,160.45,46.04s65.57-19.54,85.11-32.09c34.89-22.32,79.53-4.19,100.46,19.54,13.95,15.34,19.54,25.11,19.54,29.3,0,5.58-16.74,0-16.74,0-9.77-4.19-20.93-5.58-29.3-11.17-11.17-5.58-22.33-13.95-39.06-12.56-69.77,8.38-83.72,32.09-143.71,18.14s-75.34-26.51-139.52-22.33"/>
  <path class="st1" d="M1259.88,1745.29c-2.79-2.79,2.79-5.58,0-5.58-18.13,0-43.25-13.95-57.21-33.49-59.99-86.5-147.89-143.7-306.95-139.52-238.59,5.58-333.46-92.08-351.59-279.04-9.77-101.85-37.67-200.91-94.88-256.72l-33.49,20.93c64.18,55.81,85.11,146.5,99.06,270.67,22.32,186.96,173.01,273.46,348.81,276.25,182.77,2.79,248.35,40.46,316.71,132.55,22.32,29.3,47.44,39.06,66.97,43.25l12.57-29.31Z"/>
  <path class="st3" d="M1907.26,848.18c4.19,20.93,15.34,61.39,37.67,80.92,9.77,9.77,11.17,12.56,2.79,12.56s-69.77-2.79-69.77-2.79l-16.74-29.3,46.04-61.39Z"/>
</svg>