<?xml version="1.0" encoding="UTF-8"?>
<svg version="1.1" xmlns="http://www.w3.org/2000/svg" width="426" height="118">
<path d="M0 0 C140.58 0 281.16 0 426 0 C426 38.94 426 77.88 426 118 C285.42 118 144.84 118 0 118 C0 79.06 0 40.12 0 0 Z " fill="#FDFEFE" transform="translate(0,0)"/>
<path d="M0 0 C12.13554378 9.01716987 20.79643567 22.10951728 24 37 C25.44380886 54.7459045 22.87394362 70.49038596 11.77734375 84.8828125 C2.0676001 96.17750638 -11.00323718 104.1810857 -26 106 C-45.12248109 107.18293105 -60.67692056 103.17437543 -75.52734375 90.41796875 C-79.37004124 86.66025983 -82.27121297 82.61465033 -85 78 C-85.47179687 77.20851563 -85.94359375 76.41703125 -86.4296875 75.6015625 C-94.39748203 61.03322813 -94.71609189 44.95963703 -90.22265625 29.2890625 C-87.9419535 22.30012791 -84.49689921 16.77890995 -80 11 C-79.38125 10.17242188 -78.7625 9.34484375 -78.125 8.4921875 C-58.29278734 -14.76691485 -24.47910706 -14.94069638 0 0 Z " fill="#54C7DB" transform="translate(94,11)"/>
<path d="M0 0 C12.13554378 9.01716987 20.79643567 22.10951728 24 37 C25.44380886 54.7459045 22.87394362 70.49038596 11.77734375 84.8828125 C2.0676001 96.17750638 -11.00323718 104.1810857 -26 106 C-45.12248109 107.18293105 -60.67692056 103.17437543 -75.52734375 90.41796875 C-79.37004124 86.66025983 -82.27121297 82.61465033 -85 78 C-85.47179687 77.20851563 -85.94359375 76.41703125 -86.4296875 75.6015625 C-94.39748203 61.03322813 -94.71609189 44.95963703 -90.22265625 29.2890625 C-87.9419535 22.30012791 -84.49689921 16.77890995 -80 11 C-79.38125 10.17242188 -78.7625 9.34484375 -78.125 8.4921875 C-58.29278734 -14.76691485 -24.47910706 -14.94069638 0 0 Z M-73.99609375 14.54296875 C-83.21908854 25.85147503 -87.19567503 39.56769717 -86 54 C-82.96492132 69.55694616 -76.11775079 81.82706853 -63.07421875 91.07421875 C-50.29232097 98.98208547 -36.27436631 101.2447276 -21.52734375 98.30859375 C-6.62846287 93.71397113 4.62094923 84.65311679 12 71 C17.75424427 58.70684178 19.24978072 44.65716856 15.03515625 31.58203125 C9.71870445 18.32099486 1.74062407 8.63753758 -11 2 C-14.61471244 0.47337562 -18.25795942 -0.8242913 -22 -2 C-22.99 -2.33 -23.98 -2.66 -25 -3 C-44.48739299 -4.23057036 -60.1503664 0.0037166 -73.99609375 14.54296875 Z " fill="#52C6DB" transform="translate(94,11)"/>
<path d="M0 0 C9.42674884 7.56311135 15.98591603 19.50929579 17.84765625 31.4453125 C18.97374394 48.13356282 15.21857937 61.44741329 4.66015625 74.6328125 C-3.43048764 83.45410925 -16.00752527 89.94396646 -28.0234375 90.68359375 C-45.02197378 91.10038029 -58.106567 87.01140691 -70.90234375 75.3828125 C-79.85372951 65.96621135 -85.10889256 52.41284734 -85.52734375 39.5078125 C-85.0691757 24.10938181 -79.05414459 12.07859608 -68.15234375 1.4453125 C-48.29220899 -17.01419793 -20.96768165 -15.14543974 0 0 Z M-68.52734375 8.7578125 C-77.36353627 19.3684863 -80.05174337 30.77924072 -79.35205078 44.29296875 C-78.55940785 52.83568276 -75.24689999 60.62112296 -70.15234375 67.4453125 C-69.43046875 68.4559375 -68.70859375 69.4665625 -67.96484375 70.5078125 C-60.69106979 78.84992201 -49.20563817 84.80482885 -38.15625 85.68359375 C-23.48122973 86.00008113 -10.95395223 81.79761665 0.03515625 71.9453125 C9.06304037 62.42300065 13.34578165 49.44620858 13.1015625 36.53515625 C12.01671868 23.33344147 6.25054661 13.49882245 -3.15234375 4.4453125 C-22.93388131 -11.9983102 -50.98217997 -9.83874686 -68.52734375 8.7578125 Z " fill="#F6FCFD" transform="translate(93.15234375,19.5546875)"/>
<path d="M0 0 C1.98 0 3.96 0 6 0 C7.48310262 3.47619406 8.50470129 6.82477714 9.2890625 10.51953125 C9.61777344 12.0519043 9.61777344 12.0519043 9.953125 13.61523438 C10.17484375 14.67033203 10.3965625 15.72542969 10.625 16.8125 C10.85445312 17.88693359 11.08390625 18.96136719 11.3203125 20.06835938 C11.88416646 22.71142483 12.44392131 25.35528974 13 28 C14.95430186 25.06854722 15.52184953 23.37033894 16.25390625 20 C16.46853516 19.030625 16.68316406 18.06125 16.90429688 17.0625 C17.12150391 16.051875 17.33871094 15.04125 17.5625 14 C18.00005955 11.99972779 18.4388093 9.99971546 18.87890625 8 C19.16616577 6.6696875 19.16616577 6.6696875 19.45922852 5.3125 C20 3 20 3 21 0 C23.31 0 25.62 0 28 0 C29.00534424 4.2695936 30.00336042 8.54086684 31 12.8125 C31.28617187 14.02744141 31.57234375 15.24238281 31.8671875 16.49414062 C32.13789063 17.65751953 32.40859375 18.82089844 32.6875 20.01953125 C32.93886719 21.09307861 33.19023437 22.16662598 33.44921875 23.27270508 C34 26 34 26 34 29 C34.66 29 35.32 29 36 29 C36.11214844 27.906875 36.22429687 26.81375 36.33984375 25.6875 C37.00573836 20.36034313 38.28047889 15.20708855 39.5625 10 C39.91344727 8.55173828 39.91344727 8.55173828 40.27148438 7.07421875 C40.84373134 4.71515983 41.41997829 2.35715708 42 0 C44.31 0 46.62 0 49 0 C42.95939086 32.12182741 42.95939086 32.12182741 38 47 C36.02 47 34.04 47 32 47 C31.22534575 44.27186982 30.45526359 41.54257053 29.6875 38.8125 C29.36749023 37.68811523 29.36749023 37.68811523 29.04101562 36.54101562 C27.13573428 29.74456427 25.54801953 22.88569314 24 16 C23.74307373 17.14214966 23.74307373 17.14214966 23.48095703 18.30737305 C22.69988783 21.76839034 21.91251161 25.22794317 21.125 28.6875 C20.85558594 29.88568359 20.58617187 31.08386719 20.30859375 32.31835938 C20.04433594 33.47529297 19.78007812 34.63222656 19.5078125 35.82421875 C19.26691895 36.88729248 19.02602539 37.95036621 18.77783203 39.0456543 C18.04807409 41.81740598 17.12754593 44.36835034 16 47 C14.35 47 12.7 47 11 47 C8.17893939 40.20695529 6.4801964 33.22537856 4.83789062 26.07348633 C4.37639063 24.06854146 3.90364021 22.06648629 3.4296875 20.06445312 C1.8694049 13.38901405 0.55557338 6.83955881 0 0 Z " fill="#54C7DC" transform="translate(236,36)"/>
<path d="M0 0 C23.76 0 47.52 0 72 0 C72 0.66 72 1.32 72 2 C71.40687012 1.97905273 70.81374023 1.95810547 70.20263672 1.93652344 C52.47159875 1.39433184 39.10558097 2.77885839 24 13 C23.34515625 13.43828125 22.6903125 13.8765625 22.015625 14.328125 C13.00170499 21.19193565 5.16022654 33.96176925 3 45 C1.91610356 53.29597656 1.4168916 61.64752316 1 70 C0.67 70 0.34 70 0 70 C0 46.9 0 23.8 0 0 Z " fill="#FCFEFE" transform="translate(0,0)"/>
<path d="M0 0 C0.33 0 0.66 0 1 0 C1.23074219 0.96679688 1.46148437 1.93359375 1.69921875 2.9296875 C5.80882482 19.58474548 12.68957012 32.53676824 27.54296875 42.01953125 C35.85630493 46.78208655 44.65362873 50.15407235 54.30078125 50.09765625 C55.27724609 50.09443359 56.25371094 50.09121094 57.25976562 50.08789062 C58.77086914 50.07532227 58.77086914 50.07532227 60.3125 50.0625 C61.33923828 50.05798828 62.36597656 50.05347656 63.42382812 50.04882812 C65.94927882 50.03708184 68.47460905 50.02065565 71 50 C69 52 69 52 66.10202026 52.24050903 C64.86291901 52.23606781 63.62381775 52.23162659 62.34716797 52.22705078 C61.66412598 52.22734283 60.98108398 52.22763489 60.27734375 52.22793579 C58.01549659 52.22654039 55.75397724 52.21096967 53.4921875 52.1953125 C51.92563049 52.19158311 50.35907116 52.18873579 48.79251099 52.18673706 C44.66605203 52.17909476 40.53973349 52.15944124 36.41333008 52.1373291 C32.20395813 52.11688346 27.99456352 52.1077381 23.78515625 52.09765625 C15.523373 52.07619583 7.26170396 52.04205279 -1 52 C-1.02534714 45.23731282 -1.04286569 38.47463789 -1.05493164 31.71191406 C-1.05996157 29.41112816 -1.06678624 27.11034545 -1.07543945 24.80957031 C-1.08756359 21.50324718 -1.09324172 18.1969663 -1.09765625 14.890625 C-1.10281754 13.86132874 -1.10797882 12.83203247 -1.11329651 11.77154541 C-1.11337204 10.81085144 -1.11344757 9.85015747 -1.11352539 8.86035156 C-1.115746 8.01651917 -1.11796661 7.17268677 -1.12025452 6.30328369 C-1.00370215 4.07090873 -0.62226853 2.14140664 0 0 Z " fill="#F6FCFD" transform="translate(1,66)"/>
<path d="M0 0 C2.31 0 4.62 0 7 0 C7 6.6 7 13.2 7 20 C11.95 20 16.9 20 22 20 C22 13.4 22 6.8 22 0 C24.31 0 26.62 0 29 0 C29 15.51 29 31.02 29 47 C27.02 47 25.04 47 23 47 C22 46 22 46 21.88647461 44.14233398 C21.89171143 43.35157471 21.89694824 42.56081543 21.90234375 41.74609375 C21.90556641 40.89208984 21.90878906 40.03808594 21.91210938 39.15820312 C21.92048828 38.26037109 21.92886719 37.36253906 21.9375 36.4375 C21.94201172 35.53580078 21.94652344 34.63410156 21.95117188 33.70507812 C21.96299756 31.47002411 21.98093362 29.23500398 22 27 C17.05 27 12.1 27 7 27 C7 33.27 7 39.54 7 46 C4.69 46 2.38 46 0 46 C0 30.82 0 15.64 0 0 Z " fill="#52C7DB" transform="translate(293,36)"/>
<path d="M0 0 C8.25 0 16.5 0 25 0 C25 1.98 25 3.96 25 6 C24 7 24 7 20.18359375 7.09765625 C18.60153318 7.09098089 17.01948841 7.07901875 15.4375 7.0625 C14.63119141 7.05798828 13.82488281 7.05347656 12.99414062 7.04882812 C10.99606244 7.03700518 8.99802217 7.01906914 7 7 C7 11.29 7 15.58 7 20 C12.28 20 17.56 20 23 20 C23 21.98 23 23.96 23 26 C17.72 26 12.44 26 7 26 C7 30.62 7 35.24 7 40 C12.94 40 18.88 40 25 40 C25 41.98 25 43.96 25 46 C23.31483046 47.68516954 21.21232212 47.13008019 18.90625 47.1328125 C17.87628906 47.13410156 16.84632813 47.13539062 15.78515625 47.13671875 C14.15900391 47.13091797 14.15900391 47.13091797 12.5 47.125 C11.41589844 47.12886719 10.33179688 47.13273437 9.21484375 47.13671875 C8.18488281 47.13542969 7.15492188 47.13414063 6.09375 47.1328125 C5.14177734 47.13168457 4.18980469 47.13055664 3.20898438 47.12939453 C1 47 1 47 0 46 C-0.09295815 44.55710213 -0.11746513 43.10970215 -0.11352539 41.66381836 C-0.11344986 40.7429393 -0.11337433 39.82206024 -0.11329651 38.87327576 C-0.10813522 37.87224319 -0.10297394 36.87121063 -0.09765625 35.83984375 C-0.0962413 34.82024063 -0.09482635 33.80063751 -0.09336853 32.75013733 C-0.08775097 29.47922893 -0.0751955 26.20838787 -0.0625 22.9375 C-0.05748726 20.72591244 -0.05292396 18.51432382 -0.04882812 16.30273438 C-0.0386248 10.86844248 -0.01905285 5.43429702 0 0 Z " fill="#52C6DB" transform="translate(367,36)"/>
<path d="M0 0 C7.92 0 15.84 0 24 0 C24 2.31 24 4.62 24 7 C18.06 7 12.12 7 6 7 C6 11.29 6 15.58 6 20 C11.28 20 16.56 20 22 20 C22 21.98 22 23.96 22 26 C21 27 21 27 17.62109375 27.09765625 C16.22652923 27.09098369 14.83198257 27.07902532 13.4375 27.0625 C12.72658203 27.05798828 12.01566406 27.05347656 11.28320312 27.04882812 C9.52209987 27.03700864 7.76103964 27.01907263 6 27 C6 31.29 6 35.58 6 40 C11.94 40 17.88 40 24 40 C24 42.31 24 44.62 24 47 C16.08 47 8.16 47 0 47 C0 31.49 0 15.98 0 0 Z " fill="#53C7DB" transform="translate(333,36)"/>
<path d="M0 0 C7.92 0 15.84 0 24 0 C24 2.31 24 4.62 24 7 C18.39 7 12.78 7 7 7 C7 11.29 7 15.58 7 20 C11.95 20 16.9 20 22 20 C22 22.31 22 24.62 22 27 C17.05 27 12.1 27 7 27 C7.01160156 28.35996094 7.02320313 29.71992187 7.03515625 31.12109375 C7.04453262 32.8932278 7.05363298 34.66536333 7.0625 36.4375 C7.07087891 37.33533203 7.07925781 38.23316406 7.08789062 39.15820312 C7.09111328 40.01220703 7.09433594 40.86621094 7.09765625 41.74609375 C7.10289307 42.53685303 7.10812988 43.3276123 7.11352539 44.14233398 C7 46 7 46 6 47 C3.5 47.125 3.5 47.125 1 47 C0 46 0 46 -0.12025452 44.13340759 C-0.11803391 43.31844315 -0.11581329 42.5034787 -0.11352539 41.66381836 C-0.11344986 40.7429393 -0.11337433 39.82206024 -0.11329651 38.87327576 C-0.10813522 37.87224319 -0.10297394 36.87121063 -0.09765625 35.83984375 C-0.0962413 34.82024063 -0.09482635 33.80063751 -0.09336853 32.75013733 C-0.08775097 29.47922893 -0.0751955 26.20838787 -0.0625 22.9375 C-0.05748726 20.72591244 -0.05292396 18.51432382 -0.04882812 16.30273438 C-0.0386248 10.86844248 -0.01905285 5.43429702 0 0 Z " fill="#56C8DC" transform="translate(143,36)"/>
<path d="M0 0 C2.31 0 4.62 0 7 0 C8.50519387 2.62214328 10.00431319 5.24744208 11.5 7.875 C11.92925781 8.62136719 12.35851562 9.36773437 12.80078125 10.13671875 C13.20683594 10.85214844 13.61289063 11.56757812 14.03125 12.3046875 C14.40830078 12.96452637 14.78535156 13.62436523 15.17382812 14.30419922 C16 16 16 16 16 18 C16.66 18 17.32 18 18 18 C18.26425781 17.14148438 18.52851563 16.28296875 18.80078125 15.3984375 C20.76657684 9.82761614 23.31689362 4.64071403 27 0 C29.84394405 -1.09128086 30.9692327 -0.74222873 34 0 C32.97887548 3.80934475 31.5260323 6.91558623 29.43359375 10.22265625 C21.66082461 22.64980134 19.36937691 32.39300946 20 47 C18.00045254 47.04254356 15.99958364 47.04080783 14 47 C13 46 13 46 12.98510742 44.20019531 C13.02482666 43.41741211 13.0645459 42.63462891 13.10546875 41.828125 C13.44411569 26.80837933 9.53152405 17.23905317 1.08569336 4.91918945 C0 3 0 3 0 0 Z " fill="#50C6DB" transform="translate(197,36)"/>
<path d="M0 0 C2.31 0 4.62 0 7 0 C7 13.2 7 26.4 7 40 C12.94 40 18.88 40 25 40 C25 41.98 25 43.96 25 46 C23.31483046 47.68516954 21.21232212 47.13008019 18.90625 47.1328125 C17.87628906 47.13410156 16.84632813 47.13539062 15.78515625 47.13671875 C14.15900391 47.13091797 14.15900391 47.13091797 12.5 47.125 C11.41589844 47.12886719 10.33179688 47.13273437 9.21484375 47.13671875 C8.18488281 47.13542969 7.15492188 47.13414063 6.09375 47.1328125 C5.14177734 47.13168457 4.18980469 47.13055664 3.20898438 47.12939453 C1 47 1 47 0 46 C-0.09295815 44.55710213 -0.11746513 43.10970215 -0.11352539 41.66381836 C-0.11344986 40.7429393 -0.11337433 39.82206024 -0.11329651 38.87327576 C-0.10813522 37.87224319 -0.10297394 36.87121063 -0.09765625 35.83984375 C-0.0962413 34.82024063 -0.09482635 33.80063751 -0.09336853 32.75013733 C-0.08775097 29.47922893 -0.0751955 26.20838787 -0.0625 22.9375 C-0.05748726 20.72591244 -0.05292396 18.51432382 -0.04882812 16.30273438 C-0.03777584 10.86846643 -0.02102063 5.43423803 0 0 Z " fill="#50C6DB" transform="translate(176,36)"/>
<path d="M0 0 C1.13211914 0.00773437 1.13211914 0.00773437 2.28710938 0.015625 C5.82529827 0.06550255 9.03353786 0.304376 12.4375 1.25 C11.23368552 3.74361571 9.98321278 5.93143083 8.4375 8.25 C7.78506735 14.36175882 8.4219159 19.47199225 10.4375 25.25 C10.0625 28.625 10.0625 28.625 9.4375 31.25 C7.52734375 30.98828125 7.52734375 30.98828125 5.4375 30.25 C4.56640625 28.54296875 4.56640625 28.54296875 4 26.4375 C2.62610724 22.33774555 1.1942715 20.58754671 -2.5625 18.25 C-3.93300246 17.57413577 -5.30831292 16.90796081 -6.6875 16.25 C-9.87547469 14.69210294 -12.03227478 13.59736767 -13.5625 10.25 C-14.0625 6.6875 -14.0625 6.6875 -13.5625 3.25 C-9.33355095 -0.34998598 -5.2620423 -0.14453678 0 0 Z " fill="#F9FDFD" transform="translate(59.5625,17.75)"/>
<path d="M0 0 C1.97265625 0.19921875 1.97265625 0.19921875 4 1 C4.87109375 2.70703125 4.87109375 2.70703125 5.4375 4.8125 C7.68937846 11.50856189 13.02583359 13.68551134 19.01171875 16.75390625 C21 18 21 18 23 21 C23.54640069 26.24544666 23.54640069 26.24544666 21.6875 28.8125 C18.80823332 30.83865063 16.24972459 31.12751236 12.83984375 31.1328125 C12.04642578 31.13410156 11.25300781 31.13539062 10.43554688 31.13671875 C9.19901367 31.13091797 9.19901367 31.13091797 7.9375 31.125 C6.69516602 31.13080078 6.69516602 31.13080078 5.42773438 31.13671875 C4.23954102 31.13478516 4.23954102 31.13478516 3.02734375 31.1328125 C2.30281006 31.13168457 1.57827637 31.13055664 0.83178711 31.12939453 C-1 31 -1 31 -3 30 C-1 26 -1 26 0.0546875 24.1640625 C2.6015156 18.33372049 1.13025858 11.72506994 -1 6 C-1.1875 3.1875 -1.1875 3.1875 -1 1 C-0.67 0.67 -0.34 0.34 0 0 Z " fill="#FAFDFE" transform="translate(51,69)"/>
<path d="M0 0 C2.31 0 4.62 0 7 0 C7 13.2 7 26.4 7 40 C12.61 40 18.22 40 24 40 C24 41.98 24 43.96 24 46 C16.08 46 8.16 46 0 46 C0 30.82 0 15.64 0 0 Z " fill="#54C7DB" transform="translate(402,36)"/>
<path d="M0 0 C6.98981923 2.95723121 12.62598345 8.75723066 16.25 15.375 C16.25 16.035 16.25 16.695 16.25 17.375 C15.36248047 17.61283203 15.36248047 17.61283203 14.45703125 17.85546875 C6.27875864 20.2702605 2.60963717 24.37144874 -1.63671875 31.60546875 C-2.75 33.375 -2.75 33.375 -4.75 35.375 C-5.74 35.375 -6.73 35.375 -7.75 35.375 C-8.4375 33.625 -8.4375 33.625 -8.75 31.375 C-8.26789063 30.77042969 -7.78578125 30.16585937 -7.2890625 29.54296875 C-4.65912025 25.83835466 -5.31438034 21.7526205 -5.75 17.375 C-6.36344757 15.68801918 -7.02095914 14.01534193 -7.75 12.375 C-8.340005 8.41353786 -7.93024284 6.13963797 -5.625 2.9375 C-2.75 0.375 -2.75 0.375 0 0 Z " fill="#F9FDFD" transform="translate(79.75,22.625)"/>
<path d="M0 0 C-0.4979837 3.73487777 -0.87491756 5.81237635 -3 9 C-3.06310722 11.19459867 -3.06310722 11.19459867 -2.6875 13.5 C-2.53861328 14.66015625 -2.53861328 14.66015625 -2.38671875 15.84375 C-2.02241751 18.17239621 -2.02241751 18.17239621 -1 21 C-0.60398236 24.38877956 -0.50823863 27.61844989 -1 31 C-3.1875 33.6875 -3.1875 33.6875 -6 35 C-12.57181067 34.55390027 -16.68257094 29.53584874 -21 25 C-22.64282804 22.69669656 -23.79609983 20.57196855 -25 18 C-24.39671875 17.87882812 -23.7934375 17.75765625 -23.171875 17.6328125 C-22.37265625 17.46523437 -21.5734375 17.29765625 -20.75 17.125 C-19.56664062 16.88136719 -19.56664062 16.88136719 -18.359375 16.6328125 C-13.87678808 15.44899741 -13.87678808 15.44899741 -10.87109375 12.1328125 C-10.58363281 11.42898437 -10.29617187 10.72515625 -10 10 C-9.35829743 8.62306736 -8.7124779 7.24804568 -8.0625 5.875 C-7.58490234 4.85019531 -7.58490234 4.85019531 -7.09765625 3.8046875 C-5.21795792 0.71422264 -3.54352601 0 0 0 Z " fill="#FAFDFE" transform="translate(48,60)"/>
<path d="M0 0 C4.75 1.875 4.75 1.875 7 3 C8.7895469 3.09657872 10.58285534 3.12980468 12.375 3.125 C13.33148438 3.12757812 14.28796875 3.13015625 15.2734375 3.1328125 C17.70190246 3.01452051 19.66479464 2.6052471 22 2 C23.41534778 1.93543121 24.83337689 1.91388961 26.25 1.9375 C28.10625 1.9684375 28.10625 1.9684375 30 2 C30.33 2.66 30.66 3.32 31 4 C29 7 29 7 25.625 7.9375 C20.91426141 9.31823372 19.16261797 10.95539599 16.75390625 15.19140625 C15.89710315 16.77534788 15.05997644 18.37014486 14.24609375 19.9765625 C13 22 13 22 10 24 C7.23979004 24.37167184 4.81147524 24.17850636 2 24 C-1.03802487 20.96197513 -0.95813784 18.00592318 -1.1328125 13.80859375 C-1.13023438 12.69613281 -1.12765625 11.58367188 -1.125 10.4375 C-1.12757812 9.32246094 -1.13015625 8.20742188 -1.1328125 7.05859375 C-1.02206147 4.50806272 -0.7467862 2.42409171 0 0 Z " fill="#F7FCFD" transform="translate(19,48)"/>
<path d="M0 0 C2 0.875 2 0.875 4 2 C6.55919182 3.27959591 8.45484028 3.16816536 11.3125 3.1875 C12.25738281 3.20167969 13.20226562 3.21585937 14.17578125 3.23046875 C17.15730842 2.98716294 19.25768644 2.14225292 22 1 C26.58839706 1.08193566 28.44350835 1.51454984 31.9375 4.5625 C32.9584375 5.7690625 32.9584375 5.7690625 34 7 C30.73189691 14.68965434 25.30927105 20.92040686 18 25 C17.34 25 16.68 25 16 25 C15.91363281 24.40832031 15.82726562 23.81664063 15.73828125 23.20703125 C14.74695198 17.63194094 13.6577525 14.56764021 9 11 C6.69426732 9.63171919 4.37097487 8.34267107 1.98828125 7.11328125 C0 6 0 6 -2 4 C-2 3.01 -2 2.02 -2 1 C-1.34 0.67 -0.68 0.34 0 0 Z " fill="#F8FCFD" transform="translate(63,70)"/>
<path d="M0 0 C0.15855469 0.67546875 0.31710938 1.3509375 0.48046875 2.046875 C1.93008963 7.58907194 2.84965697 10.97697257 8 14 C8.74378906 14.38414063 9.48757812 14.76828125 10.25390625 15.1640625 C16.76041929 18.56875471 16.76041929 18.56875471 18.5625 21.8125 C18.706875 22.534375 18.85125 23.25625 19 24 C12.25 23.125 12.25 23.125 10 22 C5.41366063 21.64530109 1.19491702 21.60169433 -3.1875 23.0625 C-6.87893638 24.29297879 -9.25480081 23.97097757 -13 23 C-15.5 21.25 -15.5 21.25 -17 19 C-16.59141969 12.42958684 -11.45580394 8.36742436 -7 4 C-2.06361323 0 -2.06361323 0 0 0 Z " fill="#F9FDFD" transform="translate(40,23)"/>
<path d="M0 0 C0.66 0.33 1.32 0.66 2 1 C3.28326122 4.84978366 3.1450798 8.49073341 3.125 12.5 C3.13080078 13.65822266 3.13080078 13.65822266 3.13671875 14.83984375 C3.13099051 18.14503737 3.05207501 20.84377498 2 24 C1.401875 23.690625 0.80375 23.38125 0.1875 23.0625 C-5.88850287 20.11129861 -12.9175949 20.01130402 -19.3125 22.0625 C-20.6428125 22.5265625 -20.6428125 22.5265625 -22 23 C-25.375 22.625 -25.375 22.625 -28 22 C-28 21.01 -28 20.02 -28 19 C-26.5437455 18.32880451 -25.08492133 17.66318193 -23.625 17 C-22.81289062 16.62875 -22.00078125 16.2575 -21.1640625 15.875 C-19 15 -19 15 -17 15 C-16.72027344 14.43539062 -16.44054687 13.87078125 -16.15234375 13.2890625 C-14.98380577 10.96783112 -13.7916213 8.66476492 -12.5625 6.375 C-12.15128906 5.59898438 -11.74007812 4.82296875 -11.31640625 4.0234375 C-8.33279937 -0.56264073 -5.04002892 -0.27491067 0 0 Z " fill="#F9FDFD" transform="translate(98,46)"/>
<path d="M0 0 C2 3 2 3 3.625 6.625 C8.50129431 16.43176966 16.68476727 23.45413875 27 27 C27 27.33 27 27.66 27 28 C18.09 28 9.18 28 0 28 C0 18.76 0 9.52 0 0 Z " fill="#FCFEFE" transform="translate(0,90)"/>
<path d="M0 0 C2.31 0 4.62 0 7 0 C7 13.2 7 26.4 7 40 C6.67 40 6.34 40 6 40 C6 27.13 6 14.26 6 1 C4.68 1 3.36 1 2 1 C2 15.52 2 30.04 2 45 C8.93 45 15.86 45 23 45 C23 43.35 23 41.7 23 40 C23.66 40 24.32 40 25 40 C25.04254356 41.99954746 25.04080783 44.00041636 25 46 C23.31483046 47.68516954 21.21232212 47.13008019 18.90625 47.1328125 C17.87628906 47.13410156 16.84632813 47.13539062 15.78515625 47.13671875 C14.15900391 47.13091797 14.15900391 47.13091797 12.5 47.125 C11.41589844 47.12886719 10.33179688 47.13273437 9.21484375 47.13671875 C8.18488281 47.13542969 7.15492188 47.13414063 6.09375 47.1328125 C5.14177734 47.13168457 4.18980469 47.13055664 3.20898438 47.12939453 C1 47 1 47 0 46 C-0.09295815 44.55710213 -0.11746513 43.10970215 -0.11352539 41.66381836 C-0.11344986 40.7429393 -0.11337433 39.82206024 -0.11329651 38.87327576 C-0.10813522 37.87224319 -0.10297394 36.87121063 -0.09765625 35.83984375 C-0.0962413 34.82024063 -0.09482635 33.80063751 -0.09336853 32.75013733 C-0.08775097 29.47922893 -0.0751955 26.20838787 -0.0625 22.9375 C-0.05748726 20.72591244 -0.05292396 18.51432382 -0.04882812 16.30273438 C-0.03777584 10.86846643 -0.02102063 5.43423803 0 0 Z " fill="#61CBDE" transform="translate(176,36)"/>
<path d="M0 0 C7.92 0 15.84 0 24 0 C24 0.33 24 0.66 24 1 C16.74 1 9.48 1 2 1 C2 15.52 2 30.04 2 45 C9.26 45 16.52 45 24 45 C24 45.66 24 46.32 24 47 C20.18751574 47.02887236 16.3750593 47.04675492 12.5625 47.0625 C11.47388672 47.07087891 10.38527344 47.07925781 9.26367188 47.08789062 C8.22919922 47.09111328 7.19472656 47.09433594 6.12890625 47.09765625 C5.17056885 47.10289307 4.21223145 47.10812988 3.22485352 47.11352539 C1 47 1 47 0 46 C-0.09295815 44.55710213 -0.11746513 43.10970215 -0.11352539 41.66381836 C-0.11344986 40.7429393 -0.11337433 39.82206024 -0.11329651 38.87327576 C-0.10813522 37.87224319 -0.10297394 36.87121063 -0.09765625 35.83984375 C-0.0962413 34.82024063 -0.09482635 33.80063751 -0.09336853 32.75013733 C-0.08775097 29.47922893 -0.0751955 26.20838787 -0.0625 22.9375 C-0.05748726 20.72591244 -0.05292396 18.51432382 -0.04882812 16.30273438 C-0.0386248 10.86844248 -0.01905285 5.43429702 0 0 Z " fill="#62CBDE" transform="translate(367,36)"/>
<path d="M0 0 C3.05663383 2.83782924 5.10391395 5.64874016 7.1875 9.25 C13.14813059 18.76676052 21.49223275 24.31311118 31 30 C28.55313713 30.8826583 27.29318267 31.08949787 24.7734375 30.3203125 C15.40885232 25.65327168 6.2763503 18.85988191 2 9 C1.12101653 6.02354805 0.47546866 3.06570836 0 0 Z " fill="#58C9DC" transform="translate(0,87)"/>
<path d="M0 0 C3.5625 0.3125 3.5625 0.3125 5.5 1.4375 C7.06672245 4.20230433 6.95226435 6.19438517 6.5625 9.3125 C5.5 11.1875 5.5 11.1875 3.5625 12.3125 C0.0625 12.75 0.0625 12.75 -3.4375 12.3125 C-5.4375 10.6875 -5.4375 10.6875 -6.4375 8.3125 C-6.12371717 3.0827861 -5.61102633 0.5100933 0 0 Z " fill="#F8FCFD" transform="translate(59.4375,52.6875)"/>
<path d="M0 0 C11.29591474 2.47613998 19.18893121 8.75388589 26 18 C28.64718332 22.22922779 30.64067319 25.87461449 30 31 C27.4844745 28.0007196 25.28810949 24.91952158 23.1875 21.625 C17.26422708 12.72535611 9.56607956 6.78303978 0 2 C0 1.34 0 0.68 0 0 Z " fill="#56C8DC" transform="translate(89,0)"/>
<path d="M0 0 C0.66 0 1.32 0 2 0 C2.04254356 1.99954746 2.04080783 4.00041636 2 6 C1 7 1 7 -1.22485352 7.11352539 C-2.18319092 7.10828857 -3.14152832 7.10305176 -4.12890625 7.09765625 C-5.68061523 7.09282227 -5.68061523 7.09282227 -7.26367188 7.08789062 C-8.35228516 7.07951172 -9.44089844 7.07113281 -10.5625 7.0625 C-12.2012207 7.05573242 -12.2012207 7.05573242 -13.87304688 7.04882812 C-16.58208495 7.03699826 -19.29101599 7.02051543 -22 7 C-21.67 6.34 -21.34 5.68 -21 5 C-14.07 5 -7.14 5 0 5 C0 3.35 0 1.7 0 0 Z " fill="#78D1E2" transform="translate(199,76)"/>
<path d="M0 0 C0.66 0 1.32 0 2 0 C2 6.27 2 12.54 2 19 C3.65 19.33 5.3 19.66 7 20 C7 20.33 7 20.66 7 21 C5.00045254 21.04254356 2.99958364 21.04080783 1 21 C0 20 0 20 -0.11352539 18.05053711 C-0.10567017 16.8015564 -0.10567017 16.8015564 -0.09765625 15.52734375 C-0.09443359 14.62822266 -0.09121094 13.72910156 -0.08789062 12.80273438 C-0.07951172 11.85720703 -0.07113281 10.91167969 -0.0625 9.9375 C-0.05798828 8.98810547 -0.05347656 8.03871094 -0.04882812 7.06054688 C-0.0370011 4.70696935 -0.02052025 2.35351523 0 0 Z " fill="#79D1E2" transform="translate(210,62)"/>
<path d="M0 0 C0.66 0 1.32 0 2 0 C2 5.94 2 11.88 2 18 C3.65 18.33 5.3 18.66 7 19 C7 19.33 7 19.66 7 20 C5.00045254 20.04254356 2.99958364 20.04080783 1 20 C0 19 0 19 -0.11352539 17.14233398 C-0.10828857 16.35157471 -0.10305176 15.56081543 -0.09765625 14.74609375 C-0.09443359 13.89208984 -0.09121094 13.03808594 -0.08789062 12.15820312 C-0.07951172 11.26037109 -0.07113281 10.36253906 -0.0625 9.4375 C-0.05798828 8.53580078 -0.05347656 7.63410156 -0.04882812 6.70507812 C-0.03700225 4.46998686 -0.0205222 2.23502563 0 0 Z " fill="#6DCFE0" transform="translate(315,63)"/>
<path d="M0 0 C2.97 1.65 5.94 3.3 9 5 C3.86057616 6.28485596 2.62164416 5.22194431 -2 3 C-1.34 2.67 -0.68 2.34 0 2 C0 1.34 0 0.68 0 0 Z " fill="#60CBDE" transform="translate(22,112)"/>
<path d="M0 0 C3.3 0.99 6.6 1.98 10 3 C9.01 3.495 9.01 3.495 8 4 C7.67 4.66 7.34 5.32 7 6 C3.535 4.02 3.535 4.02 0 2 C0 1.34 0 0.68 0 0 Z " fill="#5FCADE" transform="translate(89,0)"/>
</svg>
