<?xml version="1.0" encoding="UTF-8"?><svg width="33" height="33" viewBox="0 0 33 33" fill="none" xmlns="http://www.w3.org/2000/svg">
<path d="M23.2392 11.5375L23.2275 11.5324C23.2208 11.5299 23.2141 11.5274 23.2083 11.5216C23.1987 11.5113 23.1916 11.499 23.1875 11.4855C23.1835 11.4721 23.1826 11.4578 23.1849 11.444L23.8307 7.49981L26.8594 10.526L23.7096 11.8646C23.7008 11.8681 23.6914 11.8698 23.682 11.8696H23.6695C23.6653 11.8671 23.6611 11.8638 23.6528 11.8554C23.5355 11.7251 23.3954 11.6173 23.2392 11.5375ZM27.6322 11.2971L30.8705 14.5319C31.5431 15.2045 31.8798 15.54 32.0026 15.929C32.021 15.9865 32.036 16.0441 32.0477 16.1034L24.3086 12.8294C24.3045 12.8276 24.3003 12.826 24.2961 12.8244C24.2652 12.8118 24.2292 12.7977 24.2292 12.7659C24.2292 12.7342 24.266 12.7192 24.2969 12.7067L24.3069 12.7025L27.6322 11.2971ZM31.9157 17.1416C31.7486 17.4554 31.4228 17.7809 30.8714 18.3325L27.2203 21.9787L22.4981 20.9965L22.473 20.9915C22.4313 20.9848 22.387 20.9773 22.387 20.9397C22.3691 20.7451 22.3112 20.5563 22.2171 20.385C22.1229 20.2137 21.9945 20.0636 21.8397 19.9441C21.8205 19.9249 21.8255 19.8948 21.8314 19.8673C21.8314 19.8631 21.8314 19.8589 21.8331 19.8556L22.7212 14.4092L22.7245 14.3908C22.7295 14.3491 22.7371 14.3007 22.7747 14.3007C22.965 14.2771 23.1487 14.2158 23.3151 14.1205C23.4815 14.0252 23.6272 13.8978 23.7438 13.7457C23.7513 13.7374 23.7564 13.7282 23.7664 13.7232C23.7931 13.7107 23.8249 13.7232 23.8524 13.7349L31.9157 17.1416ZM26.3806 22.8175L20.3768 28.8147L21.4045 22.5054L21.4061 22.497C21.407 22.4887 21.4086 22.4803 21.4111 22.4728C21.4195 22.4528 21.4412 22.4444 21.4621 22.4361L21.4721 22.4319C21.6971 22.336 21.8962 22.1881 22.0528 22.0004C22.0728 21.9771 22.0971 21.9545 22.128 21.9504C22.136 21.9491 22.1442 21.9491 22.1522 21.9504L26.3798 22.8183L26.3806 22.8175ZM19.106 30.0841L18.4293 30.7601L10.9475 19.9591C10.9448 19.9551 10.942 19.9512 10.9391 19.9474C10.9274 19.9316 10.9149 19.9157 10.9174 19.8973C10.9183 19.884 10.9266 19.8723 10.9358 19.8623L10.9442 19.8514C10.9667 19.818 10.9859 19.7847 11.0068 19.7488L11.0235 19.7196L11.026 19.7171C11.0377 19.697 11.0486 19.6778 11.0686 19.667C11.0862 19.6586 11.1104 19.662 11.1296 19.6662L19.4185 21.3737C19.4417 21.3773 19.4635 21.3868 19.482 21.4012C19.4929 21.4121 19.4954 21.4238 19.4979 21.4371C19.5557 21.6556 19.6633 21.8578 19.8123 22.0279C19.9613 22.1981 20.1476 22.3315 20.3568 22.4177C20.3802 22.4294 20.3701 22.4553 20.3593 22.4828C20.3538 22.4949 20.3496 22.5075 20.3467 22.5204C20.2423 23.1547 19.3467 28.6111 19.106 30.0841ZM17.6924 31.4953C17.1936 31.9886 16.8995 32.2498 16.567 32.3549C16.2391 32.4585 15.8873 32.4585 15.5594 32.3549C15.1701 32.2314 14.8333 31.8959 14.1608 31.2233L6.64724 23.718L8.6098 20.6777C8.61899 20.6626 8.62818 20.6493 8.64322 20.6384C8.66411 20.6234 8.69419 20.6301 8.71925 20.6384C9.16971 20.7742 9.65336 20.7497 10.0878 20.5692C10.1103 20.5608 10.1329 20.555 10.1504 20.5708C10.1592 20.5788 10.1671 20.5878 10.1738 20.5975L17.6924 31.4953ZM5.92288 22.9944L4.19927 21.2727L7.60304 19.8222C7.61174 19.8184 7.62112 19.8164 7.63061 19.8164C7.65902 19.8164 7.67573 19.8448 7.69077 19.8706C7.72497 19.9232 7.76121 19.9744 7.79938 20.0242L7.81024 20.0375C7.82027 20.0517 7.81358 20.0659 7.80356 20.0793L5.92288 22.9944ZM3.43647 20.5107L1.25584 18.3325C0.884888 17.962 0.615861 17.6932 0.428712 17.4621L7.05914 18.8358C7.06747 18.8373 7.07582 18.8387 7.0842 18.8399C7.12514 18.8466 7.17026 18.8541 7.17026 18.8925C7.17026 18.9342 7.12097 18.9534 7.07919 18.9693L7.05997 18.9776L3.43647 20.5107ZM0.0477295 16.3421C0.0552858 16.2018 0.0805503 16.0629 0.122923 15.929C0.246576 15.54 0.582441 15.2045 1.25584 14.5319L4.04637 11.7444C5.33121 13.6071 6.61954 15.4673 7.91134 17.3252C7.93389 17.3552 7.95896 17.3886 7.93306 17.4137C7.81108 17.548 7.6891 17.6949 7.60304 17.8543C7.59371 17.8748 7.57934 17.8926 7.56127 17.9061C7.55041 17.9127 7.53871 17.9102 7.52618 17.9077H7.52451L0.0477295 16.3421ZM4.7933 10.9983L8.54547 7.25027C8.89805 7.40467 10.1814 7.9463 11.3293 8.43035C12.1982 8.79756 12.9903 9.13139 13.2392 9.23988C13.2643 9.2499 13.2869 9.25991 13.2977 9.28495C13.3044 9.29997 13.3011 9.31917 13.2977 9.33502C13.2383 9.60557 13.2472 9.88662 13.3234 10.1529C13.3997 10.4192 13.541 10.6624 13.7347 10.8606C13.7597 10.8857 13.7347 10.9215 13.713 10.9524L13.7013 10.9699L9.89144 16.8645C9.88142 16.8812 9.87222 16.8954 9.85552 16.9062C9.83546 16.9188 9.80706 16.9129 9.78366 16.9071C9.63549 16.8683 9.48316 16.8476 9.32999 16.8453C9.19297 16.8453 9.04426 16.8704 8.89387 16.8979C8.87716 16.9004 8.86129 16.9037 8.84792 16.8937C8.83315 16.8817 8.82045 16.8673 8.81032 16.8512L4.7933 10.9983ZM9.30326 6.49332L14.1608 1.64113C14.8333 0.969302 15.1701 0.63297 15.5594 0.510289C15.8873 0.406727 16.2391 0.406727 16.567 0.510289C16.9563 0.63297 17.293 0.969302 17.9656 1.64113L19.0183 2.69269L15.5636 8.03727C15.555 8.05283 15.5434 8.06646 15.5293 8.07733C15.5084 8.09152 15.4792 8.08567 15.4541 8.07733C15.1817 7.99476 14.8933 7.97973 14.6138 8.03353C14.3343 8.08733 14.0721 8.20835 13.85 8.38612C13.8274 8.40949 13.794 8.39613 13.7656 8.38361C13.3144 8.18749 9.80539 6.70613 9.30326 6.49332ZM19.7519 3.42544L22.9418 6.61182L22.1731 11.3672V11.3797C22.1724 11.3906 22.1702 11.4012 22.1664 11.4114C22.1581 11.4281 22.1414 11.4315 22.1246 11.4365C21.9603 11.4862 21.8055 11.5632 21.6668 11.6643C21.6608 11.6686 21.6552 11.6733 21.6501 11.6785C21.6409 11.6885 21.6317 11.6977 21.6167 11.6994C21.6044 11.6997 21.5922 11.6978 21.5807 11.6935L16.7199 9.63046L16.7107 9.62629C16.6798 9.61377 16.643 9.59875 16.643 9.56703C16.6144 9.29645 16.526 9.03561 16.384 8.8034C16.3606 8.76501 16.3347 8.72495 16.3548 8.68573L19.7519 3.42544ZM16.4667 10.6077L21.0235 12.5356C21.0485 12.5473 21.0761 12.5581 21.087 12.584C21.0913 12.5996 21.0913 12.616 21.087 12.6316C21.0736 12.6983 21.0619 12.7743 21.0619 12.8511V12.9788C21.0619 13.0105 21.0293 13.0238 20.9992 13.0363L20.9901 13.0397C20.2682 13.3476 10.8556 17.3569 10.8414 17.3569C10.8272 17.3569 10.8121 17.3569 10.7979 17.3427C10.7729 17.3177 10.7979 17.2826 10.8205 17.2509C10.8245 17.2454 10.8284 17.2398 10.8322 17.2342L14.5769 11.4423L14.5835 11.4323C14.6053 11.3972 14.6303 11.358 14.6704 11.358L14.708 11.3639C14.7932 11.3755 14.8684 11.3864 14.9445 11.3864C15.5126 11.3864 16.039 11.1102 16.3564 10.6378C16.364 10.6252 16.3736 10.6139 16.3849 10.6044C16.4074 10.5877 16.4408 10.5961 16.4667 10.6077ZM11.2483 18.2733L21.5081 13.9026C21.5081 13.9026 21.5231 13.9026 21.5373 13.9168C21.5933 13.9727 21.6409 14.0103 21.6869 14.0453L21.7094 14.0595C21.7303 14.0712 21.7512 14.0846 21.7529 14.1063C21.7529 14.1146 21.7529 14.1196 21.7512 14.1271L20.8723 19.5201L20.8689 19.5418C20.8631 19.5835 20.8572 19.6311 20.8179 19.6311C20.5836 19.6469 20.3567 19.7195 20.1568 19.8427C19.9569 19.9659 19.7901 20.1359 19.6708 20.338L19.6666 20.3447C19.6549 20.3639 19.6441 20.3822 19.6249 20.3922C19.6073 20.4006 19.5848 20.3972 19.5664 20.3931L11.3845 18.7072C11.3761 18.7056 11.2575 18.2741 11.2483 18.2733Z" fill="url(#paint0_radial_2000_216649)"/>
<defs>
<radialGradient id="paint0_radial_2000_216649" cx="0" cy="0" r="1" gradientUnits="userSpaceOnUse" gradientTransform="translate(16.1831 -0.377029) rotate(77.8763) scale(36.2124 41.8545)">
<stop stop-color="#20C6B7"/>
<stop offset="1" stop-color="#4D9ABF"/>
</radialGradient>
</defs>
</svg>
