<?xml version="1.0" encoding="UTF-8"?>
<svg id="Layer_1" xmlns="http://www.w3.org/2000/svg" version="1.1" viewBox="0 0 32 32">
  <!-- Generator: Adobe Illustrator 30.1.0, SVG Export Plug-In . SVG Version: 2.1.1 Build 136)  -->
  <defs>
    <style>
      .st0 {
        fill: #fff;
      }
    </style>
  </defs>
  <path class="st0" d="M23.75,30c-.12.06-.11.08,0,.02.04-.01.07-.04.09-.06t-.1.04ZM23.99,29.88q-.06.05.01.02s.07-.04.07-.05c0-.03-.02-.02-.08.03ZM24.15,29.78q-.06.05.01.02s.07-.04.07-.05c0-.02-.02-.02-.08.03ZM24.3,29.69q-.06.05,0,.01s.07-.04.07-.05c0-.02-.02-.02-.08.03ZM24.52,29.55c-.11.07-.15.12-.05.07.07-.04.18-.13.16-.13-.04.02-.08.04-.11.06h0ZM14.95.01c-.07,0-.29.02-.48.04C9.92.46,5.67,2.91,2.97,6.68,1.48,8.75.51,11.15.14,13.67.02,14.55,0,14.81,0,16s.02,1.45.14,2.33c.87,6.01,5.15,11.06,10.94,12.93,1.04.33,2.14.56,3.38.7.48.05,2.58.05,3.06,0,2.15-.24,3.97-.77,5.77-1.69.28-.14.33-.18.29-.21-.88-1.16-1.74-2.32-2.61-3.49l-2.56-3.45-3.2-4.74c-1.07-1.59-2.14-3.17-3.23-4.74-.01,0-.02,2.11-.03,4.68-.01,4.51-.01,4.69-.07,4.79-.06.12-.15.23-.28.29-.1.05-.19.06-.66.06h-.54l-.14-.09c-.09-.06-.16-.14-.21-.23l-.07-.14v-6.27s.02-6.27.02-6.27l.1-.12c.06-.08.14-.14.23-.19.13-.06.18-.07.72-.07.64,0,.74.02.91.21,1.3,1.93,2.59,3.87,3.86,5.81,2.08,3.15,4.92,7.45,6.31,9.56l2.54,3.84.12-.08c1.22-.81,2.33-1.78,3.28-2.89,2.02-2.31,3.32-5.15,3.77-8.18.13-.88.15-1.14.15-2.33s-.02-1.45-.15-2.33c-.87-6.01-5.15-11.06-10.94-12.93-1.08-.34-2.2-.58-3.33-.7-.3-.03-2.37-.07-2.63-.04h0ZM21.5,9.69c.15.07.26.21.32.36.03.08.03,1.82.03,5.74v5.62s-1-1.52-1-1.52l-1-1.52v-4.08c0-2.65.01-4.13.02-4.2.05-.17.16-.31.31-.4.12-.06.17-.07.67-.07.46,0,.54,0,.65.06h0Z"/>
</svg>