<?xml version="1.0" encoding="UTF-8"?>
<svg id="Layer_1" xmlns="http://www.w3.org/2000/svg" version="1.1" viewBox="0 0 512 156">
  <!-- Generator: Adobe Illustrator 30.1.0, SVG Export Plug-In . SVG Version: 2.1.1 Build 136)  -->
  <defs>
    <style>
      .st0 {
        fill: none;
      }

      .st1 {
        fill: #ff6c37;
      }
    </style>
  </defs>
  <polygon class="st0" points="438.53 86.23 453.52 86.23 446.06 61.22 438.53 86.23"/>
  <path class="st0" d="M201.79,60.44c-1.79-1.63-4.12-2.49-6.52-2.33h-9.01l-.08,19.81h9.09c2.41.16,4.82-.7,6.52-2.41,1.71-1.94,2.56-4.5,2.33-7.15v-.78c.23-2.56-.62-5.13-2.33-7.15Z"/>
  <path class="st0" d="M250.26,60.36c-1.79-1.63-4.12-2.49-6.52-2.33-5.83,0-8.7,3.11-8.7,9.48l-.08,20.19c0,6.29,2.87,9.48,8.78,9.48,2.41.16,4.74-.7,6.52-2.33,1.71-1.94,2.49-4.5,2.33-7.15v-20.19c.23-2.56-.62-5.13-2.33-7.15Z"/>
  <path class="st1" d="M352.78,52.98h-27.18c-.62,0-1.17.23-1.48.78-.39.47-.54,1.09-.54,1.71,0,.7.23,1.32.62,1.86.31.54.85.78,1.48.78h10.8v41.79c0,.62.31,1.16.85,1.48,1.24.7,2.72.7,3.96,0,.54-.31.85-.85.85-1.48v-41.79h10.64c.62,0,1.17-.23,1.48-.78.39-.54.54-1.24.54-1.86s-.16-1.24-.54-1.71c-.31-.54-.85-.78-1.48-.78Z"/>
  <path class="st1" d="M406.84,53.06c-1.71,0-3.18,1.24-4.5,3.57l-10.56,20.12-10.49-20.12c-1.24-2.41-2.72-3.57-4.5-3.57-.23-.08-.54-.08-.85,0-1.32.23-2.25,1.48-2.02,2.8v44.04c-.08.62.31,1.24.93,1.48.54.39,1.24.54,1.94.54.62,0,1.32-.23,1.86-.62.54-.31.85-.85.85-1.48v-35.42l10.1,19.34c.31.93,1.17,1.55,2.1,1.63,1.01,0,1.86-.7,2.17-1.63l10.1-18.95v35.03c0,.62.31,1.17.85,1.48,1.24.7,2.72.7,3.96,0,.54-.31.85-.85.85-1.48v-44.04c.08-.23.08-.47,0-.7-.23-1.32-1.48-2.25-2.8-2.02Z"/>
  <path class="st1" d="M299.19,75.66c-2.17-1.01-4.35-1.86-6.52-2.64-2.02-.62-3.88-1.71-5.51-3.03-1.48-1.24-2.25-3.11-2.17-5.05-.16-2.1.78-4.12,2.49-5.28,1.94-1.16,4.27-1.71,6.52-1.63,2.17-.08,4.27.39,6.21,1.24,1.01.47,2.02.85,3.03,1.16.7,0,1.4-.47,1.71-1.09.47-.62.7-1.32.7-2.02,0-1.32-1.32-2.41-3.81-3.26-2.56-.78-5.2-1.17-7.92-1.17-1.71,0-3.42.23-5.13.62-1.63.47-3.18,1.09-4.66,1.94-1.55.93-2.8,2.25-3.57,3.88-.93,1.94-1.4,4.04-1.32,6.14-.16,2.64.7,5.2,2.25,7.3,1.48,1.86,3.34,3.26,5.51,4.19,2.25.93,4.35,1.79,6.52,2.56,2.1.78,3.96,1.94,5.51,3.5,1.55,1.63,2.33,3.73,2.25,5.98.16,2.33-.78,4.66-2.49,6.21-1.94,1.48-4.35,2.25-6.83,2.1-1.63,0-3.34-.23-4.89-.85-1.16-.39-2.25-1.01-3.18-1.86-.7-.7-1.32-1.32-1.94-1.86-.39-.47-.93-.78-1.55-.85-.7.08-1.24.47-1.63,1.01-.47.62-.78,1.32-.78,2.1,0,1.63,1.4,3.26,4.19,5.13,3.03,1.71,6.52,2.56,10.02,2.49,3.88.23,7.69-1.01,10.64-3.5,2.72-2.33,4.04-5.83,4.04-10.41.08-2.95-.7-5.83-2.25-8.31-1.4-2.02-3.26-3.65-5.44-4.74Z"/>
  <path class="st1" d="M511.15,53.53c-1.24-.7-2.72-.7-3.96,0-.54.23-.85.78-.85,1.4v34.25l-16.7-32.62c-.39-1.01-1.09-1.94-1.86-2.72-.7-.54-1.55-.85-2.41-.85-1.86,0-2.8.62-2.8,1.94v44.97c0,.62.31,1.16.85,1.48,1.24.7,2.72.7,3.96,0,.47-.31.78-.85.78-1.48v-34.17l17.55,33.63c.54,1.48,1.94,2.49,3.5,2.56.7,0,1.32-.16,1.94-.54.54-.31.85-.85.85-1.48v-44.97c0-.54-.31-1.09-.85-1.4Z"/>
  <path class="st1" d="M195.5,52.98h-12.66c-.62-.08-1.16.16-1.63.54-.39.39-.62.85-.62,1.4v44.97c0,.62.31,1.16.85,1.48,1.24.7,2.72.7,3.96,0,.54-.31.85-.85.85-1.48v-17.32h9.01c3.81.23,7.53-1.09,10.49-3.5,2.64-2.33,3.96-6.06,3.96-11.03v-.62c0-4.97-1.32-8.62-3.88-10.95-2.87-2.41-6.6-3.65-10.33-3.5ZM201.79,75.51c-1.71,1.71-4.12,2.56-6.52,2.41h-9.09l.08-19.81h9.01c2.41-.16,4.74.7,6.52,2.33,1.71,2.02,2.56,4.58,2.33,7.15v.78c.23,2.64-.62,5.2-2.33,7.15Z"/>
  <path class="st1" d="M446.06,53.06c-1.86,0-3.03.62-3.42,1.94l-13.67,44.04c-.08.16-.16.39-.16.54,0,.78.39,1.4,1.09,1.71.7.47,1.48.7,2.25.7.85.08,1.79-.47,2.02-1.32l2.95-9.79h17.55l2.95,9.79c.31.85,1.17,1.32,2.02,1.24.93.08,1.79-.16,2.49-.62.62-.31,1.09-.93,1.09-1.63v-.39l-13.75-44.27c-.39-1.32-1.55-1.94-3.42-1.94ZM438.53,86.23l7.53-25.01,7.46,25.01h-14.99Z"/>
  <path class="st1" d="M233.17,56.56c-2.56,2.33-3.88,5.98-3.88,11.03v20.12c0,5.05,1.32,8.7,3.88,11.03,6.21,4.74,14.76,4.74,20.97,0,2.64-2.33,3.96-5.98,3.96-11.03v-20.12c0-4.97-1.32-8.7-3.96-11.03-6.21-4.66-14.76-4.66-20.97,0ZM250.26,94.85c-1.79,1.63-4.12,2.49-6.52,2.33-5.9,0-8.78-3.18-8.78-9.48l.08-20.19c0-6.37,2.87-9.48,8.7-9.48,2.41-.16,4.74.7,6.52,2.33,1.71,2.02,2.56,4.58,2.33,7.15v20.19c.16,2.64-.62,5.2-2.33,7.15Z"/>
  <path class="st1" d="M87.62.64C45.14-4.8,6.07,25.26.64,67.74c-5.44,42.48,24.62,81.47,67.1,86.99,42.56,5.44,81.47-24.62,86.99-67.18C160.16,44.98,130.11,6.07,87.62.64ZM66.65,86.38c-.08-.16-.08-.31.08-.47l4.19-4.19,3.34,3.34-7.15,1.55c-.23,0-.39-.08-.47-.23ZM69.29,80.17l-12.82,2.8c-.23.08-.47,0-.54-.23-.16-.23-.08-.47.08-.62l7.61-7.61,5.67,5.67ZM106.34,57.64l-30.45,26.72-3.81-3.81,28.74-28.81c.16-.08.23-.16.31-.23,1.71-1.4,4.27-1.24,5.67.47s1.24,4.27-.47,5.67ZM99.66,50.73l-28.74,28.74-6.1-6.1c28.34-28.34,33.44-28.61,38.74-24.27-1.41,0-2.82.55-3.9,1.63ZM32.17,120.48l6.14-6.14,7.92,7.92-13.75-.93c-.16,0-.23-.08-.31-.16-.23-.16-.23-.54,0-.7ZM48.48,121.49c-.27.16-.57.13-.81-.03l-8.24-8.24,24.4-24.33,3.37-.72h.23l8.16-1.78,5.66,5.66c-8.16,7.07-19.26,14.21-33.01,21.13-.62.31-.93.93-.78,1.63l1.32,5.59c.23.39.08.85-.31,1.09ZM82.38,90.92l-5.48-5.48,30.37-26.64.23-.23c.22-.22.4-.46.58-.7-.84,8.73-13.08,21.03-25.7,33.05ZM102.61,40.87c-.08-6.52,5.2-11.81,11.73-11.81,2.8,0,5.44.93,7.53,2.72l-10.41,10.41c-.16.16-.23.31-.23.54s.08.39.23.54l8.1,8.1c-1.62.84-3.38,1.22-5.15,1.22-6.52.08-11.81-5.2-11.81-11.73ZM120.94,50.58l-7.84-7.84,9.94-9.86c4.27,4.66,4.04,11.88-.39,16.31-.47.47-1.09,1.01-1.71,1.4Z"/>
  <path class="st1" d="M123.35,39.39c-.16-.47-.7-.7-1.16-.54s-.7.7-.54,1.16c0,.08.08.16.08.23.47.93.31,2.1-.31,2.95-.31.39-.23.93.08,1.24.39.31.93.23,1.24-.16,1.17-1.48,1.4-3.34.62-4.89Z"/>
</svg>