<?xml version="1.0" encoding="UTF-8"?>
<svg id="Layer_1" xmlns="http://www.w3.org/2000/svg" version="1.1" viewBox="0 0 155.36 155.36">
  <!-- Generator: Adobe Illustrator 30.1.0, SVG Export Plug-In . SVG Version: 2.1.1 Build 136)  -->
  <defs>
    <style>
      .st0 {
        fill: #ff6c37;
      }
    </style>
  </defs>
  <path class="st0" d="M87.62.64C45.14-4.8,6.07,25.26.64,67.74c-5.44,42.48,24.62,81.47,67.1,86.99,42.56,5.44,81.47-24.62,86.99-67.18C160.16,44.98,130.11,6.07,87.62.64ZM66.65,86.38c-.08-.16-.08-.31.08-.47l4.19-4.19,3.34,3.34-7.15,1.55c-.23,0-.39-.08-.47-.23h.01ZM69.29,80.17l-12.82,2.8c-.23.08-.47,0-.54-.23-.16-.23-.08-.47.08-.62l7.61-7.61,5.67,5.67h0ZM106.34,57.64l-30.45,26.72-3.81-3.81,28.74-28.81c.16-.08.23-.16.31-.23,1.71-1.4,4.27-1.24,5.67.47s1.24,4.27-.47,5.67h.01ZM99.66,50.73l-28.74,28.74-6.1-6.1c28.34-28.34,33.44-28.61,38.74-24.27-1.41,0-2.82.55-3.9,1.63ZM32.17,120.48l6.14-6.14,7.92,7.92-13.75-.93c-.16,0-.23-.08-.31-.16-.23-.16-.23-.54,0-.7h0ZM48.48,121.49c-.27.16-.57.13-.81-.03l-8.24-8.24,24.4-24.33,3.37-.72h.23l8.16-1.78,5.66,5.66c-8.16,7.07-19.26,14.21-33.01,21.13-.62.31-.93.93-.78,1.63l1.32,5.59c.23.39.08.85-.31,1.09h0ZM82.38,90.92l-5.48-5.48,30.37-26.64.23-.23c.22-.22.4-.46.58-.7-.84,8.73-13.08,21.03-25.7,33.05ZM102.61,40.87c-.08-6.52,5.2-11.81,11.73-11.81,2.8,0,5.44.93,7.53,2.72l-10.41,10.41c-.16.16-.23.31-.23.54s.08.39.23.54l8.1,8.1c-1.62.84-3.38,1.22-5.15,1.22-6.52.08-11.81-5.2-11.81-11.73h.01ZM120.94,50.58l-7.84-7.84,9.94-9.86c4.27,4.66,4.04,11.88-.39,16.31-.47.47-1.09,1.01-1.71,1.4h0Z"/>
  <path class="st0" d="M123.35,39.39c-.16-.47-.7-.7-1.16-.54s-.7.7-.54,1.16c0,.08.08.16.08.23.47.93.31,2.1-.31,2.95-.31.39-.23.93.08,1.24.39.31.93.23,1.24-.16,1.17-1.48,1.4-3.34.62-4.89h-.01Z"/>
</svg>