<?xml version="1.0" encoding="UTF-8"?>
<svg id="Layer_1" xmlns="http://www.w3.org/2000/svg" version="1.1" viewBox="0 0 582.51 151.14">
  <!-- Generator: Adobe Illustrator 30.1.0, SVG Export Plug-In . SVG Version: 2.1.1 Build 136)  -->
  <defs>
    <style>
      .st0 {
        fill: #e35636;
      }

      .st1 {
        fill: #fcfcec;
      }

      .st2 {
        fill: #fdfcf3;
      }

      .st3 {
        fill: #fdfdfa;
      }

      .st4 {
        fill: #fff;
      }

      .st5 {
        fill: #f2c741;
      }

      .st6 {
        fill: #d57de5;
      }

      .st7 {
        fill: #e35535;
      }

      .st8 {
        fill: #fefefe;
      }

      .st9 {
        fill: #798eea;
      }

      .st10 {
        fill: #f3c741;
      }

      .st11 {
        fill: #d47de5;
      }

      .st12 {
        fill: #fdfcfb;
      }
    </style>
  </defs>
  <g>
    <path class="st4" d="M325.07,48.11c.85,16.91.82,34.07,0,51-.36,3.67-4.15,5.16-7.38,4.89-2.2-.18-5.37-2.45-5.62-4.89-.83-16.91-.83-34.07,0-51,1.22-3.7,4.29-4.18,7.46-4.05,2.32.09,5.25,1.18,5.54,4.05Z"/>
    <path class="st4" d="M327.18,27.45c-.79,2.14-5,4.78-7.22,5.29-4.36,1.01-8.86-2.32-9.48-5.5-.89-4.55-.48-9.39,4.25-11.49,4.15-1.84,10.7-.28,12.01,4.44.52,1.87,1.22,5.13.44,7.26Z"/>
    <path class="st4" d="M312.07,99.11c-1.67-16.72-1.67-34.29,0-51v51Z"/>
    <path class="st4" d="M325.07,99.11v-51c1.7,16.71,1.64,34.27,0,51Z"/>
  </g>
  <g>
    <path class="st4" d="M504.11,99.11c-.82-16.91-.9-34.07.08-51,1.25-2.92,3.68-4.03,6.52-4.16,2.67-.12,6.97.79,6.97,4.55l.06,49.4c0,4.12-3.67,6.42-6.99,6.09s-6.3-1.51-6.64-4.88h0Z"/>
    <path class="st4" d="M508.16,15.6c5.02-1.96,9.65,1.42,11.41,5.47,1.99,4.59-1.32,9.32-5.67,11.36s-8.92-.44-10.89-4.74-.45-9.89,5.15-12.08h0Z"/>
    <path class="st4" d="M504.11,99.11c-1.67-16.71-1.85-34.37.08-51l-.08,51Z"/>
  </g>
  <g>
    <path class="st11" d="M50.07,1.12c4.39-.91,9.61-.86,14,0,4.76,0,9.27-.78,14.69.71-4.86,4.19-8.26,9.83-13.3,12.56-8.41,1.98-17.45-.15-25.96.84-14.04,1.64-23.45,11.41-25.09,25.5-1.08,9.27,1.12,24.67-1.8,29.37L.1,57.8l.27-24.43C.56,16.32,15.37,3.35,32.23,1.37c6.25-.73,12.04.09,17.84-.25Z"/>
    <path class="st10" d="M149.07,95.11c.66,5.23,1.05,10.78,0,16,0,9.46-2.21,19.01-8.59,26.29-7.66,8.74-17.35,12.76-28.41,12.71-13.22.57-26.55.71-39.97.42-.88-.54-.81-1.84-.03-2.42,2.83-3.75,6.34-7.07,10-10l1.56-1.03c10.51-.11,20.99-.77,31.44-1.97,20.69-7.29,18.4-25.15,20-26,.44-9.11.72-18.25.84-27.41l1.16.41c3.83,2.56,6.49,6.56,10.35,9.65,1.31,1.05,1.11,2.38,1.65,3.35Z"/>
    <path class="st9" d="M13.06,85.11l.89,21c1.49,16.51,5.78,23.08,21.6,29.55,2.64,1.08,6.03.56,8.52.55,8.05.39,16.17.6,24.36.63l-.36,1.27-11.32,12.03-23.55-.24C12.61,149.7-.21,130.35,0,110.11l.41-38.55c5.26,4.44,11.3,9.68,12.65,13.55Z"/>
    <path class="st7" d="M94.07,1.11c4.1-.88,8.88-.86,13,0,7.36,0,15.42,1.34,22.66,4.64,14.23,6.49,19.3,21.76,19.31,36.36.86,11.69.87,24.08.03,36-.16.72-.79,1.61-1.65.77l-10.18-9.98c-.91-.89-.93-1.97-1.18-2.78l-.88-24c-1.44-9.51-5.28-18.68-14.6-23.55-4.96-2.6-10.55-2.51-15.52-3.58l-21.19-.42c-1.92.16-2.85-.32-2.81-1.44,1.91-2.39,10.35-12,13-12v-.02Z"/>
    <path class="st6" d="M37.15,48.22l-.41,45.51c-5.57-4.41-8.99-8.62-13.46-13.07v-39.67c0-7.71,6.26-15.14,14-16.45,6.08-1.03,12.14-.21,18.41-.05l-15.39,15.94c-1.73,1.79-3.12,5.09-3.15,7.78h0Z"/>
    <path class="st0" d="M125.05,38.11c.39,2.32,1.01,17.04.18,17.28-.33.09-.74-.06-1.16-.28l-11.77-11.3c-2.42-2.4-5.5-5.61-9.34-5.64l-46.51-.37,12.99-13.79,40,.67c8.37.14,13.99,6.66,15.61,13.42h0Z"/>
    <path class="st9" d="M80.07,126.11c-14.27.83-28.72.84-43,0-15.51-5.22-14.76-17.43-13.42-31.6l14.7,14.33c2.24,2.19,5.53,4.17,8.84,4.2l45.46.49c-4.4,5.26-8.27,9.11-12.57,12.58h0Z"/>
    <path class="st5" d="M124.07,69.11c.89,1.1,1.64,2.19,1.53,3.68.2,13.78.02,27.56-.53,41.32-1.09,6.08-5.93,10.87-12,12-2.39.73-17.61.94-18.25.13-.15-.19,0-.63.25-1.13l9.54-10.4c2.39-2.6,4.46-5.13,6.46-7.6.38-15.93.72-31.93,1-48-.81-5.27,12.08,10.13,12,10Z"/>
    <path class="st3" d="M111.07,107.11c.68-16.05-1.35-32.34,1-48l.07,45.07c0,1.66-.42,2.12-1.07,2.93Z"/>
    <path class="st5" d="M125.07,114.11v-37c.26-3-.23-5.62-1-8,.42.76,2.39.98,2.22,3.01-1.14,14.32,1.2,28.47-1.22,41.99Z"/>
    <path class="st1" d="M112.07,150.11c.12.38-.36.98-1.07.98l-39.03.05c-1.27,0-.95-1.52-.9-2.44.02-.36.52-.32.99-.59-.05-.1-.22,1.84.28,1.84l39.72.16h.01Z"/>
    <path class="st9" d="M80.07,126.11c-14.35,1.68-29.11,1.67-43,0h43Z"/>
    <path class="st12" d="M149.07,78.11l-.03-36c.17-.16,1.26.41,1.2,1.07-1.07,11.97,1.28,23.79-1.17,34.93Z"/>
    <path class="st10" d="M115.07,135.11c-10.75,3.79-23.35.43-33,3,.9-.72.85-2.07,3.01-2.09,6.32-.06,12.59.52,18.9-.14,3.93-.41,7.5-1.24,11.09-.77Z"/>
    <path class="st10" d="M137.07,82.11c-.39-.12-.98.36-.98,1.05l.03,23.06c0,1.32-.19,2.43-1.06,2.89l-.02-27.88c1.46-.72,1.75.38,2.02.88h0Z"/>
    <path class="st9" d="M68.07,138.11c.12-.42-.35-.95-1.05-.95l-21.89-.1c-.67,0-1.16-.43-1.06-.84l24.88-.11c.7,1.46-.38,1.74-.88,2.01h0Z"/>
    <path class="st7" d="M105.07,14.97l-24.88.18c-.68-1.49.33-1.81.88-2.04,5.67,2.61,13.42-.41,24,1.86Z"/>
    <path class="st7" d="M136.07,66.11c-2.31-7.64-.46-16.01-.88-24,1.19,7.87.94,15.9.88,24Z"/>
    <path class="st5" d="M113.07,126.11c-2.53.47-4.66,2.24-8.17,1.2-2.61-.77-5.92.01-9.08-.13-1.85.2-2.67-1.61-.74-2.08-.07.78.92,1.02,1.95,1.02l16.05-.02h-.01Z"/>
    <path class="st9" d="M13.95,106.11c-.62-6.85-1.37-13.91-.89-21,2.32,6.63.48,14.01.89,21Z"/>
    <path class="st0" d="M124.07,55.11c.42.12.95-.35.95-1.04l.03-15.96c1.27,5.3,1.26,10.29.92,16.35.75,1.67-1.56,2.62-1.9.65Z"/>
    <path class="st2" d="M149.07,111.11v-16c1.58,2.85,1.54,16.57,0,16Z"/>
    <path class="st8" d="M64.07,1.13h-14c-3.32-1.5,17.35-1.51,14,0Z"/>
    <path class="st8" d="M107.07,1.11h-13c-2.94-1.48,15.94-1.48,13,0Z"/>
  </g>
  <g>
    <g>
      <path class="st4" d="M299.07,44.11c.91,3.86.85,8.13,0,12-2.55,1.31-5.37.65-8.17.69-7.2.1-11.78,6.07-12.98,12.31-.15,10.01-.43,20.01-.85,30-.67,2.85-3.68,4.87-6.5,4.74-2.62-.12-6.22-.75-6.49-3.74-.77-17.57-.92-35.42.1-53,1.3-4.06,10.55-4.38,12.32-.92,1.22,2.38-.2,5.05,2.41,6.07,3.74-8.17,12.71-11.46,20.15-8.15h.01Z"/>
      <path class="st4" d="M264.09,100.11c-1.57-17.38-1.92-35.72.1-53l-.1,53Z"/>
      <path class="st4" d="M277.07,99.11c.49-10.02-1.03-20.21.85-30-.35,9.99,1.44,20.34-.85,30Z"/>
      <path class="st4" d="M299.07,56.11v-12c1.25-1.09,1.87,11.04,0,12Z"/>
    </g>
    <g>
      <path class="st4" d="M215.07,43.11c3.59-.86,7.41-.89,11,.03,9.47.12,16.5,8.66,19.63,17.26,4.6,12.65,2.77,26.04-6.1,36.38-10.03,11.69-28.61,11.31-38.28-.91l-.66,30.74c-.08,3.67-4.32,5.72-7.03,5.71-3.08-.02-6.35-1.78-6.56-5.21-.76-26.13-.9-52.85.09-79,.38-5.07,10.06-5.22,12.02-2.5,1.74,2.41.23,4.6,1.22,7.53,3.2-5.39,8.61-9.2,14.67-10.03ZM202.67,82.96c3.08,6.1,9.85,9.46,15.63,9.03,6.22-.47,11.59-4.59,14.2-10.5,3.54-8.04,1.51-16.96-5.36-22.07-6.09-4.53-15.81-4.89-21.66,1.08-5.63,5.74-6.53,15.09-2.8,22.46h0Z"/>
      <path class="st4" d="M187.07,127.11c-1.55-26.08-1.87-53.01.09-79l-.09,79Z"/>
      <path class="st4" d="M226.07,43.14l-11-.03c2.99-1.7,8.05-1.77,11,.03Z"/>
    </g>
    <g>
      <path class="st4" d="M358.07,43.13c3.58-.9,7.41-.9,11,0,4.89.02,9.33,2.42,11.5,6.38,1.91,3.47-.18,6.74-3.15,8.37-7.95,4.4-9.82-8.95-20.2-1.57-1.99,1.41-2.74,2.37-2.21,5.26,1.55,8.35,20.75,3.55,27.89,15.13,3.35,5.44,3.99,15.65-1.45,20.85-10.02,9.58-26.99,9.97-37.95,2.33-3.47-2.42-1.79-7.23.08-8.86,8.03-6.99,8.13,5.2,21.61,2.38,3.51-.73,5.8-2.54,6.05-5.78s-1.79-5.57-5.27-6.63l-17.39-5.3c-7.43-2.27-10.21-15.43-4.87-24.11,2.64-4.29,8.44-7.77,14.33-8.46h.03Z"/>
      <path class="st4" d="M369.07,43.13h-11c2.96-1.77,8.04-1.76,11,0Z"/>
    </g>
    <g>
      <path class="st4" d="M559.07,43.11c3.59-.87,7.41-.89,11,.02,4.53.05,9.19,2.75,11.42,6.26,1.82,2.87.16,6.1-1.76,7.59-1.56,1.22-4.51,4.11-6.73,2.43-4.33-3.27-9.91-4.43-15.33-2.61-4.61,1.54-7.2,5.83-9.23,10.72-3.58,8.63,1.02,19.12,9.73,23.27,5.81,2.77,10.64-.2,16.53-2.27,3.54-1.24,8.93,6.28,7.6,9.58-8.16,7.64-20.03,8.74-30.72,4.63-9.17-3.53-15.38-12.33-17.47-22.61-.48-4.3-.55-8.7,0-13,3.11-13.2,12.16-22.06,24.96-24h0Z"/>
      <path class="st4" d="M534.1,80.11c-1.05-5.13-1.07-8.42,0-13v13Z"/>
      <path class="st4" d="M570.07,43.12l-11-.02c3-1.71,8.03-1.75,11,.02Z"/>
    </g>
    <g>
      <path class="st4" d="M424.07,43.14c3.24-.92,6.74-.9,10-.03,6.09.03,9.66,4.56,12.96,9.81,4.22-4.97,8.24-9.8,14.04-9.81,3.26-.87,6.79-1.17,10,0,9.65,2.02,14.81,12.82,14.8,20.04-.03,12.71,1.12,25.08-.5,37.6-.57,4.4-11.92,4.28-12.57.06-2.39-15.42,3.48-39.46-6.89-44.04-3.93-1.73-10.76-.5-13.33,2.76-2.37,3-3.27,7.83-3.33,11.5l-.52,28.93c-.05,2.74-4.95,4.22-7.03,4.04-1.89-.16-6.25-1.51-6.28-4.01l-.46-34.91c-.03-2.22-1.61-5.39-2.71-7.19-7.43-3.91-15.26-2.25-18.75,5.39-.94,2.06-1.16,4.76-1.2,6.91l-.61,29.78c-.06,2.77-4.87,4.2-6.95,4.04-1.89-.15-6.46-1.54-6.46-4.06-.03-17.63-.94-34.95.39-52.41.36-4.67,10.35-4.61,11.61-1.01,3.47,9.98,2.49-.91,13.8-3.4h-.01Z"/>
      <path class="st4" d="M471.07,43.12c-2.8-.59-6.29-.02-10,0,2.65-1.72,7.37-1.75,10,0Z"/>
      <path class="st4" d="M434.07,43.11l-10,.03c2.6-1.8,7.35-1.74,10-.03Z"/>
    </g>
  </g>
</svg>