<?xml version="1.0" encoding="UTF-8"?>
<svg id="Layer_1" xmlns="http://www.w3.org/2000/svg" version="1.1" viewBox="0 0 3005.39 596.54">
  <!-- Generator: Adobe Illustrator 30.1.0, SVG Export Plug-In . SVG Version: 2.1.1 Build 136)  -->
  <defs>
    <style>
      .st0 {
        fill: #e95344;
      }

      .st1 {
        fill: #c97025;
      }

      .st2 {
        fill: #e84131;
      }

      .st3 {
        fill: #ea5244;
      }

      .st4 {
        fill: #ed786e;
      }

      .st5 {
        fill: #ee786e;
      }

      .st6 {
        fill: #cf9850;
      }

      .st7 {
        fill: #e84031;
      }

      .st8 {
        fill: #ee786f;
      }

      .st9 {
        fill: #8dcd0c;
      }

      .st10 {
        fill: #e74131;
      }
    </style>
  </defs>
  <path class="st6" d="M256.37,594.45c-7.82,2.84-18.12,2.72-25.99.07l25.99-.07Z"/>
  <path class="st1" d="M453.98,167.82l.61-5.75c1,.85,1.65,2.08,1.82,3.1.45,2.78-.48,2.65-2.43,2.65Z"/>
  <path class="st0" d="M2429.81,116.54v-4.35c.38.64,1.85.53,2.02,1.2.36,1.39-.48,3.23-2.02,3.15Z"/>
  <g>
    <rect class="st7" x="1738.48" y="9.83" width="123.01" height="576.73"/>
    <path class="st6" d="M1633.67,585.67l.35-575.49c.67,0,2.01.19,2.01,2.6v570.95c.01,2.79-1.19,2.1-2.35,1.95Z"/>
    <g>
      <g>
        <g>
          <path class="st2" d="M883.6,446l-32.82-88.15c-.87-2.34-2.91-3.46-4.26-4.1-20.8-65.02-48.88-128.14-73.53-191.72-18.69-48.19-33.64-98.4-55.57-146.62-.36-.8-2.23.97-3.16,1.05.22-2.67,1.76-6.71,6.06-6.7l117.47.36,223.98,574.97-124.26.71-53.91-139.79Z"/>
          <path class="st4" d="M772.99,162.02l-112.94,277.76-62.03,153.51c-2.28.91-4.42.16-6.88-1.96l-87.58-75.38L714.26,16.45c.93-.08,2.8-1.85,3.16-1.05,21.92,48.22,36.88,98.43,55.57,146.62Z"/>
          <path class="st0" d="M846.52,353.75c1.35.65,3.39,1.76,4.26,4.1l32.82,88.15-285.58,147.29,62.03-153.51,186.48-86.03Z"/>
        </g>
        <path class="st6" d="M238.38,99.91c-7.31.59-14.68.59-21.99,0,6.67-2.84,15.33-2.84,21.99,0Z"/>
        <g>
          <path class="st10" d="M115.68,195.68c24.24,14.94,50.73,25.42,79.47,32.09l121.64,28.22c29.45,6.83,56.1,18.43,80.62,35.14,41.67,28.41,63.36,73.01,63.88,122.96.4,39.06-10.79,75.16-34.6,103.89-4.14-54.73-18.37-94.25-67.67-121.95-26.72-15.01-53.41-28.54-85.66-35.83l-121.67-27.53c-27.05-6.12-51.26-16.86-74.08-31.74-36-23.47-56.99-60.05-61.7-102.52-4.87-43.99,6.16-86.55,32.67-119.76,2.85,21.78,4.51,43.97,15.29,64.48,11.83,22.49,30.96,39.71,51.79,52.55Z"/>
          <path class="st0" d="M426.69,517.98c-15.82,19.09-32.22,36.39-56.6,48.55-35.43,17.67-74.49,27.82-113.71,27.92l-25.99.07c-43.1.11-86.05-9.57-125.1-29.44C49.25,536.39,11.06,485.22,0,421.79l126.21-.03c9.48,29.02,28.45,50.88,56.35,62.67,36.57,14.07,76.64,14.79,113.76,1.98,39.33-13.8,63.54-49.95,62.7-90.39,49.3,27.7,63.52,67.22,67.67,121.95Z"/>
          <path class="st0" d="M230.38.67c5.05,3.6,12.03,1.12,18,1.28,98.79,2.65,186.34,59.66,206.21,160.13l-.61,5.75-119.25-.16c-15.55-44.2-52.4-65.22-96.35-67.75-6.67-2.84-15.33-2.84-21.99,0-54.96,2.83-99.89,38.39-100.7,95.77-20.83-12.84-39.96-30.06-51.79-52.55-10.79-20.51-12.44-42.7-15.29-64.48,16.84-21.09,35.55-39.71,61.87-52.26C140.74,11.95,173.3,2.4,206.39,1.86c4.83-.08,9.78,1.91,14-1.2h10Z"/>
          <path class="st1" d="M248.38,1.95c-5.97-.16-12.95,2.32-18-1.28,5.96,0,12.96-2.15,18,1.28Z"/>
          <path class="st1" d="M220.38.67c-4.21,3.1-9.17,1.12-14,1.2,3.68-3.33,9.38-1.09,14-1.2Z"/>
        </g>
      </g>
      <g>
        <polygon class="st3" points="1634.01 10.17 1633.67 585.67 1518.15 585.61 1517.47 402.16 1517.52 398.05 1517.56 9.88 1634.01 10.17"/>
        <path class="st10" d="M1515.59,398.06c.77,1.16.41,3.25,1.88,4.1l.68,183.45-273.84-399.03-3.66-4.52-111.31-164.61c-1.63-2.41-3.43-3.25-5.23-3.49,0-.97-.17-1.94.28-2.52.66-.85,1.92-1.72,3.83-1.72l131.06.33,256.32,388.01Z"/>
        <path class="st3" d="M1240.65,182.06l-.88,403.61-116.22-.47.56-571.23c1.8.24,3.6,1.08,5.23,3.49l111.31,164.61Z"/>
        <path class="st6" d="M1244.31,186.58c-.74.7-2.2,1.58-2.2,4.12l.03,393.14c-.01,2.62-1.21,1.95-2.36,1.84l.88-403.61,3.66,4.52Z"/>
        <path class="st9" d="M1517.47,402.16c-1.47-.84-1.11-2.94-1.88-4.1h1.92s-.04,4.1-.04,4.1Z"/>
      </g>
    </g>
    <g>
      <g>
        <polygon class="st10" points="2792.05 367.94 2673.72 367.97 2671.49 368.16 2671.54 366.05 2732.08 262.41 2735.82 252.17 2876.96 9.6 3005.39 10.75 2792.05 367.94"/>
        <polygon class="st0" points="2735.82 252.17 2732.08 262.41 2671.54 366.05 2460.1 10.37 2592.61 9.63 2735.82 252.17"/>
        <polygon class="st8" points="2792.05 367.94 2792.16 585.5 2674.09 585.67 2673.99 583.96 2673.72 367.97 2792.05 367.94"/>
        <polygon class="st3" points="2673.99 583.96 2671.74 584.09 2671.49 368.16 2673.72 367.97 2673.99 583.96"/>
      </g>
      <g>
        <path class="st7" d="M2429.81,112.19v4.35s-1.85-.09-1.85-.09l-234.04-.66c-.34,0-.69-.05-2.06-.18l-260.29.19V9.82s438.35,0,438.35,0l59.88,102.37Z"/>
        <path class="st3" d="M2241.98,212.05l-.47,373.62-122.15-.14.3-323.04.19-108.08c0-1.31,1.49-2.18,2.03-2.44l.04,122.7,120.06-62.61Z"/>
        <path class="st5" d="M2427.97,116.45l-183.98,95.73-2-.13-120.06,62.61-.04-122.7c17.51-8.41,50.34-26.17,69.98-33.7,1.01-.39,1.56-1.62,2.06-2.47l234.04.66Z"/>
        <path class="st6" d="M2241.51,585.67l.47-373.62,2,.13-.14,371.68c.04,2.56-1.18,1.95-2.33,1.81Z"/>
        <path class="st1" d="M2191.87,118.26v-2.65c1.37.13,1.71.18,2.06.18-.5.85-1.05,2.09-2.06,2.47Z"/>
      </g>
    </g>
  </g>
  <path class="st6" d="M2674.09,585.67c-2.4.57-2.34-.72-2.35-1.58l2.24-.13.1,1.71Z"/>
</svg>