<?xml version="1.0" encoding="UTF-8"?>
<svg id="Layer_1" xmlns="http://www.w3.org/2000/svg" version="1.1" viewBox="0 0 256 256">
  <!-- Generator: Adobe Illustrator 30.1.0, SVG Export Plug-In . SVG Version: 2.1.1 Build 136)  -->
  <defs>
    <style>
      .st0 {
        fill: #3178c6;
      }
    </style>
  </defs>
  <path class="st0" d="M236,0H20C8.95,0,0,8.95,0,20v216c0,11.05,8.95,20,20,20h216c11.05,0,20-8.95,20-20V20c0-11.05-8.95-20-20-20ZM140,131.74h-35.52v101.26h-28.14v-101.26h-35.35v-22.74h99v22.74ZM231.07,215.45c-2.62,4.69-6.18,8.49-10.67,11.39-4.49,2.91-9.72,4.99-15.68,6.26-5.96,1.27-12.25,1.9-18.87,1.9s-13.26-.58-19.39-1.73c-6.13-1.15-11.45-2.88-15.94-5.18v-27.62c5.01,4.2,10.45,7.35,16.33,9.45,5.87,2.1,11.81,3.15,17.79,3.15,3.51,0,6.58-.32,9.2-.95,2.62-.63,4.81-1.51,6.57-2.63s3.07-2.45,3.93-3.97c.86-1.51,1.31-3.22,1.3-4.96,0-2.42-.69-4.57-2.07-6.47-1.38-1.9-3.27-3.65-5.66-5.27s-5.23-3.16-8.51-4.66c-3.51-1.59-7.05-3.12-10.62-4.57-9.67-4.03-16.89-8.95-21.64-14.76s-7.13-12.83-7.13-21.06c0-6.44,1.3-11.98,3.89-16.61,2.59-4.63,6.12-8.44,10.58-11.44,4.46-2.99,9.63-5.19,15.51-6.6,5.87-1.41,12.09-2.11,18.66-2.11s12.17.39,17.15,1.17c4.98.78,9.57,1.97,13.78,3.58v25.81c-2.14-1.47-4.41-2.75-6.78-3.8-2.45-1.09-4.97-2-7.56-2.72-2.59-.72-5.17-1.25-7.73-1.6-2.56-.35-4.99-.52-7.3-.52-3.17,0-6.05.3-8.64.91-2.59.61-4.78,1.45-6.57,2.55-1.79,1.09-3.17,2.4-4.15,3.93-.98,1.52-1.47,3.24-1.47,5.13,0,2.07.55,3.93,1.64,5.57,1.09,1.64,2.65,3.19,4.66,4.66,2.02,1.47,4.46,2.91,7.34,4.32,2.88,1.41,6.13,2.86,9.76,4.36,4.95,2.07,9.4,4.27,13.35,6.6,3.94,2.33,7.33,4.96,10.15,7.9,2.8,2.9,5,6.31,6.48,10.05,1.5,3.77,2.25,8.16,2.25,13.16,0,6.91-1.31,12.7-3.93,17.39Z"/>
</svg>