<?xml version="1.0" encoding="UTF-8"?>
<svg id="Layer_1" xmlns="http://www.w3.org/2000/svg" version="1.1" viewBox="0 0 986.7 156.81">
  <!-- Generator: Adobe Illustrator 30.1.0, SVG Export Plug-In . SVG Version: 2.1.1 Build 136)  -->
  <defs>
    <style>
      .st0 {
        fill: #3f20fc;
      }
    </style>
  </defs>
  <path class="st0" d="M181.67,150.23c-7.14,5.13-15.43,3.24-20.73-1.63-5.21-4.8-7.82-13.91-3.14-20.5l27.83-39.18c4.7-6.62,6.82-14.19,1.72-21.38l-29.24-41.25c-4.65-6.55-2.63-15.11,2.13-20.34,5-5.5,13.92-7.65,20.76-2.78l38.52,27.44c5.95,4.24,14.09,7.24,20.71,2.55l42.63-30.15c6.78-4.8,15.08-2.76,20.09,1.9,5.61,5.21,7.97,13.8,3.23,20.52l-29.6,41.97c-3.91,5.55-3.78,13.15-.02,18.48l29.35,41.56c5.08,7.2,2.29,16.57-3.8,21.83-6.15,5.31-13.85,5.04-20.46.31l-36.57-26.22c-9.57-6.86-17.36-6.22-26.62.44l-36.8,26.45Z"/>
  <path class="st0" d="M783.21,156.05c-20.11,2.07-38.98-1.43-55.24-12.8-26.98-18.85-32.92-51.99-28.28-82.98,3.84-25.64,20.67-46.79,45.23-55.47,24.24-8.56,51.18-5.75,72.34,8.98,27.57,19.19,33.37,56.67,27.06,87.27-6.23,30.18-30.18,51.82-61.11,55ZM788.36,116.84c18.5-10.27,17.95-44.68,11.96-62.03-4.05-11.75-13.85-18.2-25.69-18.91-13.56-.81-24.85,6.21-29.62,19.39-5.7,15.75-6.03,46.91,8.73,59.19,9.43,7.84,23.59,8.48,34.61,2.36Z"/>
  <path class="st0" d="M90.32,2.96l41.39-.37.07,97.56c.02,23.54-13.21,43.44-35.86,51.53-18.76,6.7-40.39,6.85-59.28.43C14.67,144.64.76,126.09.03,103.13L0,2.64h41.17s0,94.51,0,94.51c.29,13.94,11.05,23.87,24.9,23.75,12.97-.11,24.1-9.69,24.12-23.21l.13-94.73Z"/>
  <path class="st0" d="M474.05,106.1c-8.38,2.53-16.61,3.24-25.02,3.27l-20.54.09-.04,45.04-39.85.06c-.6-2.07-1.19-4.83-1.19-7.52l.06-144.39,68.49-.04c12.33,0,23.85,3.96,33.64,10.81,13.92,10.25,19.93,25.73,20.14,42.75.29,23.12-12.88,43.03-35.69,49.92ZM466.17,55.66c-.31-10.42-6.81-17.99-16.9-19.49-6.49-.96-13.17-.57-20.75-.59l-.09,41.51c6.86.14,13.68.39,20.37-.36,10.8-1.21,17.69-10.08,17.36-21.08Z"/>
  <path class="st0" d="M941.09,35.91l-.03,118.58h-40.7s-.03-118.59-.03-118.59l-45.62-.21-.12-33,131.56-.08.55,28.72c.05,2.46-2.05,4.54-4.57,4.55l-41.03.02Z"/>
  <polygon class="st0" points="688.45 121.21 688.36 154.54 585.53 154.43 585.57 2.81 627.07 2.69 627.07 121.12 688.45 121.21"/>
  <rect class="st0" x="469.17" y="57.76" width="152.02" height="41.59" transform="translate(466.35 623.7) rotate(-89.97)"/>
</svg>