<?xml version="1.0" encoding="UTF-8"?>
<svg id="Layer_1" xmlns="http://www.w3.org/2000/svg" version="1.1" viewBox="0 0 2444 1559.3">
  <!-- Generator: Adobe Illustrator 30.1.0, SVG Export Plug-In . SVG Version: 2.1.1 Build 136)  -->
  <defs>
    <style>
      .st0 {
        fill: #fff;
      }
    </style>
  </defs>
  <path class="st0" d="M2124.12,0H319.88C143.52,0,0,143.48,0,319.84v1083.49c0,60.15,33.64,113.85,87.78,140.16,21.86,10.61,45.17,15.82,68.32,15.82,34.12,0,67.92-11.37,96.11-33.52l461.47-362.88h1410.45c176.36,0,319.88-143.48,319.88-319.84V319.84c0-176.36-143.52-319.84-319.88-319.84ZM2296.32,843.06c0,94.95-77.21,172.23-172.19,172.23H688.13c-16.58,0-32.6,5.57-45.65,15.78l-481.58,378.66c-1.36,1.04-4.08,3.16-8.65.96-4.56-2.24-4.56-5.69-4.56-7.37V319.84c0-94.95,77.21-172.23,172.19-172.23h1804.25c94.99,0,172.19,77.29,172.19,172.23v523.22Z"/>
  <path class="st0" d="M810.9,507.64h-17.7c-40.77,0-73.84,33.04-73.84,73.8s33.08,73.8,73.84,73.8h17.7c40.77,0,73.84-33.04,73.84-73.8s-33.08-73.8-73.84-73.8Z"/>
  <path class="st0" d="M1230.89,507.64h-17.78c-40.77,0-73.84,33.04-73.84,73.8s33.08,73.8,73.84,73.8h17.78c40.77,0,73.84-33.04,73.84-73.8s-33.08-73.8-73.84-73.8Z"/>
  <path class="st0" d="M1650.8,507.64h-17.7c-40.77,0-73.84,33.04-73.84,73.8s33.08,73.8,73.84,73.8h17.7c40.77,0,73.84-33.04,73.84-73.8s-33.08-73.8-73.84-73.8Z"/>
</svg>