<?xml version="1.0" encoding="UTF-8"?>
<svg id="Layer_1" xmlns="http://www.w3.org/2000/svg" version="1.1" viewBox="0 0 202.09 137.48">
  <!-- Generator: Adobe Illustrator 30.1.0, SVG Export Plug-In . SVG Version: 2.1.1 Build 136)  -->
  <defs>
    <style>
      .st0 {
        fill: none;
      }
    </style>
  </defs>
  <path class="st0" d="M105.77,88.88c-2.27,3.06-6.43,3.29-8.98.47l-25.25-21.53-56.19,60.51h171.29s-56.04-60.51-56.04-60.51l-24.83,21.06Z"/>
  <polygon class="st0" points="9.19 14.92 9.22 121.63 64.61 61.94 9.19 14.92"/>
  <polygon class="st0" points="192.9 121.53 192.97 14.78 137.44 61.99 192.9 121.53"/>
  <path d="M201.98,13.18c0-5.58-5.85-13.18-12.03-13.18H12.11C5.91,0,.11,7.52.1,13.18L0,122.06c0,9.67,6.72,15.42,16.18,15.42h169.72c9.48,0,16.2-5.68,16.19-15.89l-.11-108.41ZM185.57,9.04l-84.51,72.08L16.32,9.01l169.25.02ZM9.19,14.92l55.42,47.02L9.22,121.63l-.03-106.71ZM15.36,128.33l56.19-60.51,25.25,21.53c2.55,2.82,6.71,2.59,8.98-.47l24.83-21.06,56.04,60.51H15.36ZM192.9,121.53l-55.46-59.54,55.53-47.2-.06,106.75Z"/>
  <path d="M110.96,61.28c2.66-.74,5.21-1.87,7.65-3.39l-2.58-5.04c-1.16.76-2.23,1.38-3.21,1.86-.98.48-2,.86-3.06,1.14-1.06.28-2.19.47-3.39.57s-2.58.15-4.14.15c-2.68,0-5.21-.41-7.59-1.23-2.38-.82-4.46-2.01-6.24-3.57-1.78-1.56-3.19-3.48-4.23-5.76-1.04-2.28-1.56-4.86-1.56-7.74,0-2.56.48-4.96,1.44-7.2.96-2.24,2.29-4.17,3.99-5.79,1.7-1.62,3.72-2.9,6.06-3.84,2.34-.94,4.89-1.41,7.65-1.41,2.4,0,4.64.36,6.72,1.08,2.08.72,3.89,1.74,5.43,3.06,1.54,1.32,2.75,2.92,3.63,4.8s1.32,3.96,1.32,6.24c0,1.36-.16,2.68-.48,3.96-.32,1.28-.77,2.42-1.35,3.42-.58,1-1.26,1.8-2.04,2.4s-1.63.9-2.55.9c-.28,0-.52-.12-.72-.36-.2-.24-.3-.56-.3-.96,0-.96.06-1.92.18-2.88l1.8-14.94h-5.52l-.54,3.06c-.6-1.08-1.54-1.95-2.82-2.61-1.28-.66-2.78-.99-4.5-.99-1.56,0-3.09.3-4.59.9s-2.83,1.45-3.99,2.55c-1.16,1.1-2.1,2.42-2.82,3.96-.72,1.54-1.08,3.23-1.08,5.07s.38,3.6,1.14,5.16c.76,1.56,1.71,2.9,2.85,4.02,1.14,1.12,2.4,1.99,3.78,2.61,1.38.62,2.71.93,3.99.93,1.04,0,2.16-.17,3.36-.51s2.46-1.17,3.78-2.49c.64.96,1.39,1.72,2.25,2.28.86.56,1.83.84,2.91.84,2,0,3.8-.4,5.4-1.2,1.6-.8,2.97-1.93,4.11-3.39,1.14-1.46,2.02-3.2,2.64-5.22s.93-4.25.93-6.69c0-2.88-.59-5.59-1.77-8.13s-2.8-4.75-4.86-6.63c-2.06-1.88-4.49-3.36-7.29-4.44s-5.82-1.62-9.06-1.62c-3.52,0-6.79.62-9.81,1.86-3.02,1.24-5.65,2.94-7.89,5.1-2.24,2.16-4,4.7-5.28,7.62-1.28,2.92-1.92,6.08-1.92,9.48s.6,6.38,1.8,9.3c1.2,2.92,2.9,5.48,5.1,7.68,2.2,2.2,4.87,3.94,8.01,5.22,3.14,1.28,6.67,1.92,10.59,1.92,3.12,0,6.01-.37,8.67-1.11ZM105.59,40.97c-.32.76-.75,1.42-1.29,1.98-.54.56-1.18,1.01-1.92,1.35-.74.34-1.51.51-2.31.51s-1.57-.17-2.31-.51c-.74-.34-1.38-.79-1.92-1.35-.54-.56-.97-1.22-1.29-1.98-.32-.76-.48-1.54-.48-2.34s.16-1.57.48-2.31c.32-.74.75-1.4,1.29-1.98.54-.58,1.18-1.04,1.92-1.38.74-.34,1.51-.51,2.31-.51s1.57.17,2.31.51c.74.34,1.38.8,1.92,1.38.54.58.97,1.24,1.29,1.98.32.74.48,1.51.48,2.31s-.16,1.58-.48,2.34Z"/>
</svg>