<?xml version="1.0" encoding="UTF-8"?>
<svg id="Layer_1" xmlns="http://www.w3.org/2000/svg" version="1.1" viewBox="0 0 1119.88 1179.41">
  <!-- Generator: Adobe Illustrator 30.1.0, SVG Export Plug-In . SVG Version: 2.1.1 Build 136)  -->
  <defs>
    <style>
      .st0 {
        fill: #fff;
      }
    </style>
  </defs>
  <path class="st0" d="M1070.51,858.17c-2.48,51.52-25.03,98.11-64.05,130.4-28.01,23.47-60.93,38.69-98.06,43.25-10.65,74.63-71.5,135.02-146.19,145.58-66.11,10.43-131.89-20.43-164.73-78.93-10.75-19.14-17.94-40.78-17.94-63.52l-.03-891.88c0-27.91,8.33-53.78,23.19-76.34C646.74-.17,735.57-19.83,804.03,22.1c36.47,22.34,62.66,58.28,72.78,101.31,33.68,1.96,64.02,15.32,89,37.49,42.35,37.58,57.55,95.93,39.43,149.49,77.72,44.05,107.06,143.07,66.22,222.36,70.41,68.23,63.36,183.91-16.87,242.05,12.6,26.28,17.32,53.7,15.91,83.38ZM864.82,630.54l64.79-.41c12.39-13.66,31.76-18.35,48.55-10.06,16.74,8.26,24.68,27.21,19.95,44.66-4.62,17.07-19.59,28.88-37.75,29.29-12.02.27-22.02-5.92-30.87-13.31l-93.39-.47-34.06-56.23-172.35-.1.14,33.44,120.46,62.28c5.16,2.67,8.42,6.37,8.42,12.55l-.04,83.9c0,1.11,1.42,2.6,2.01,2.6l145.47.12,109.43-.2c-5.28-25.69-19-45.67-39.63-61.72,24.98-6.38,46.62-17.67,63.65-36.33,30.34-32.98,38.04-80.5,18.59-120.97-12.17-25.33-33.36-43.5-59.64-54.54,25.13-22.26,39.93-52.73,40.2-86.08.51-62.02-44.59-113.7-105.97-121.84,36.06-41.02,39.59-101.27-1.05-138.29-28.62-26.08-66.14-31.67-103.66-21.62,4.02-29.29-1.84-57.76-18.61-81.74-20.75-29.68-54.52-46.71-90.96-44-49.35,3.67-90.05,46.19-88.95,96.53l.14,269.08,66.66-62.52-.02-177.79c-11.01-9.87-15.22-22.97-12.76-37.33,2.02-11.83,10.14-23.42,22.58-28.64,18.3-7.67,39.14-1.28,49.01,14.77,10.28,16.72,6.99,37.68-8.77,51.29l-.06,193.93c0,3.23-1.2,6.6-3.51,8.77l-113.22,106.36-.04,88.29,60.84.16,81.94-134.18,50.17.91.09-84.03c-14.92-7.87-23.16-22.8-21.38-39.57,1.6-15.01,12.27-28.6,26.54-33.01,15.71-4.85,32.57-.48,42.78,12.3,15.73,19.7,9.42,47.38-12.37,59.52l-.04,87.76,29.26,2.73c11.07-13.12,28.67-16.49,44.02-10.45,14.07,5.54,23.96,19.66,24.17,35.83.23,17.95-11.19,33.37-27.08,38.21-17.4,5.3-34.88-1.43-45.32-16.36-27.96-2.78-55.08-3.79-83.2-3.72l-50.7,83.83,82.48.27,33.06,56.13ZM847.69,891.3c13.29,4.19,23.8,13.36,27.67,25.34,4.47,13.83,1.57,27.37-7.61,38.2-13.39,15.78-36.77,17.74-52.56,5.31-15.77-12.42-19.41-34.03-8.08-52.02l-48.31-36.35-.04,132.16c14.37,13.74,16.33,33.97,5.59,50.07-13.89,20.83-43.03,23.62-60.54,6.45-17.67-17.33-15.59-46.23,5.27-60.84l-.04-244.47-79.34-41.01-.17,312.2c-.51,46.65,36.57,88.49,80.37,98.84,39.07,9.23,79.87-1.61,109.34-28.79,31.95-29.48,45.93-72.95,38.3-115.52,80.16,13.92,158.75-43.07,161.74-125.32l-200.6.07c15.47,14.07,22.99,14.08,29.02,35.72Z"/>
  <path class="st0" d="M66.12,776.59c-56.96-41.74-79.92-113.82-57.82-180.1,8.24-24.7,21.39-46.41,40.08-64.27-40.92-79.07-10.63-178.65,66.87-221.86-15.32-42.64-8.54-88.54,17.49-125.25,26.03-36.7,66.23-58.76,111.4-61.84,7.02-31.22,22.48-58.82,44.38-80.22,64.16-62.68,167.16-55.95,222.99,13.87,20.24,25.31,30.67,56.53,30.67,89.89v877c0,28.27-5.86,54.55-20.67,78.39-36.72,59.09-106.29,87.86-174.45,73.62-70.53-14.73-124.74-72.26-135.62-143.88-32.37-3.3-61.07-16.02-86.68-34.85-41.24-30.32-67.69-74.77-72.93-125.98-3.6-32.33.51-64.13,14.29-94.52ZM82.61,724.01c17.98,18.21,40.41,28.07,65.85,28.06l147.67-.02,33.41-63.91-117.31-110.26-21.58-19.77c-13.23,1.86-25.12-3-33.27-11.59-8.68-9.15-12.02-21.61-9.65-34.18,2.32-12.3,10.48-22.29,19.67-27.05,12.41-6.41,25.76-6.01,36.87.41,12.53,7.24,18.48,20.14,18.58,34.6l144.88,135.96,124-.32.04-267.92-112.86-80.59c-3.05-2.18-4.21-5.5-4.09-9.21l-.05-129.5c-15.32-14.83-16.36-37.62-3.7-53.36,12.92-16.04,36.11-19.63,53.26-7.65,10.48,7.32,15.17,18.92,15.5,30.84.33,12-6.06,22.37-14.97,30.42l-.25,109.71,66.89,47.56v-183.23c-.01-22.89-9.45-43.47-24.26-59.59-37.83-41.16-100.9-43.03-141.67-5.03-26.75,24.94-38.51,60.98-33.01,98.35-39.68-9.68-81.66-2.66-110.62,28.05-22.24,23.57-29.82,56.98-19.39,87.59,29.22-9.16,62.35-10.56,87.82,6.71l87.75,59.49.11,62.77,71.62,52.39c1.66,1.21,3.53,5.24,3.54,7.1l.2,39.46c18.28,13.61,20.09,39.01,5.67,55.59s-38.81,17.12-54.74,2.2c-15.15-14.19-16.43-38.71-.58-54.16l-.22-21.21-75.04-55.58.05-61.21c-21.1-13.85-40.13-29.64-62.09-42.25-14.44-8.29-33.52-7.72-49.63-4.19-39.5,8.64-72.3,36.44-87.55,73.7-18.91,46.19-5.9,98.11,30.71,131.86-18.78,8.94-35.04,20.67-47.25,36.81-32.89,43.48-28.9,103.06,9.68,142.14ZM491.66,814.1l-93.15,54.54-.11,110.98c12.26,15.48,11.78,36.12-.39,50.51-11.97,14.15-32.03,18.11-48.76,9-12.27-7.04-19.68-19.44-19.76-32.93-.07-13.93,6.75-26.24,19.36-33.9v-124.53c0-5.58,1.92-9.89,6.95-12.53l135.81-79.18.09-50.91-115.32-.03-49.16,95.67-215.6-.03c-20.38,48.12-9.06,103.71,26.59,140.74,32.2,33.44,77.31,48.01,123.81,39.07-13.25,72.74,40.89,146.48,115.89,147.6,56.93,3.92,112.22-42.85,113.82-100.52l-.09-213.53Z"/>
  <path class="st0" d="M899.43,757.55c0-21.68-17.58-39.26-39.26-39.26s-39.26,17.58-39.26,39.26,17.58,39.26,39.26,39.26,39.26-17.58,39.26-39.26Z"/>
  <circle class="st0" cx="860.17" cy="757.55" r="39.26"/>
</svg>