<?xml version="1.0" encoding="UTF-8"?>
<svg id="Layer_1" xmlns="http://www.w3.org/2000/svg" version="1.1" viewBox="0 0 1166 934">
  <!-- Generator: Adobe Illustrator 30.1.0, SVG Export Plug-In . SVG Version: 2.1.1 Build 136)  -->
  <defs>
    <style>
      .st0 {
        fill: #fff;
      }
    </style>
  </defs>
  <path class="st0" d="M1031,934H145l-4.97-1.28.41-157.6c.05-19.99,7.43-53.69,13.41-73.19,12.09-39.46,28.04-70.34,49.66-105.26l28.68-46.31,38.63-62.41,57-91.96,29.24-46.92c1.34-2.15,3.15-5.73,3.15-8.25l.03-104.72c0-2.62.47-5.34.86-8.08h135.67c.34,2.57.98,5.65.99,8.01l.08,71.44c0,1.78,2.3,3.55,4.26,3.55h172.81c2.55,0,4.34-1.99,4.34-4.21v-70.77c0-2.49.49-5.3.9-8.02h135.64c.35,2.61.97,5.57.98,8.07l.2,105.05c0,4.11,4.18,9.24,6.35,12.7l55.18,87.78,43.62,69.38,58.15,92.72c9.33,14.88,17.83,28.98,25.76,44.6,10.16,20.03,19.62,39.65,23.89,61.95,3.4,17.74,6.56,34.5,6.61,53.04l.47,169.79c-3.17.1-4.74.27-5.98.93l-.02-.03h0ZM493.08,410.71h-75.21v52.29h75.21v-52.29ZM546.92,463h75.21v-52.29h-75.21M676.7,410.74v52.26h74.51v-52.26h-74.51ZM493.09,548.6v-42.72c0-1.61-2.35-4.66-3.95-4.63l-16.15.29-52.49.13c-1.13,1.02-2.64,3.65-2.64,5.2l.07,41.18c0,3.15,2.3,5.22,5.17,5.22l65.73-.02c2.21,0,4.26-2.06,4.26-4.65h0ZM622.13,548.61v-42.78c0-2.32-1.96-4.09-4.23-4.1l-60.84-.14c-3.62,0-6.17-.44-10.06.86l-.08,47.51c0,1.49,2.97,3.31,4.24,3.31h66.72c2.11,0,4.26-2.01,4.26-4.66h-.01ZM751.21,501.48l-74.51.02.02,51.79,74.51-.02-.02-51.79h0ZM493.08,592.71h-75.21v52.29h75.21v-52.29ZM622.13,592.71h-75.21v52.29h75.21v-52.29ZM676.71,592.71v52.29h74.5v-52.29h-74.5Z"/>
  <path class="st0" d="M590,0c16.87,2.23,34.27.53,52.01,1.29l15.14.65c38.34,1.64,76.16,3.94,114.17,8.34l18.13,2.1,47.62,6.52c60.44,8.28,119.52,22.08,177.66,40.08l23.24,7.19c9.28,2.87,18.34,5.79,27.44,9.13l32.69,11.98c13.07,22.02,25.12,44.51,34,68.74l11.59,31.6c6.5,17.73,10.52,35.53,14.93,53.92,2.83,11.82,5.33,23.13,6.69,35.14-32.62,7.93-89.61,13.55-121.36,11.75-63.38-3.58-118.05-20.38-175.05-47.43,1.08-13.88-.24-30.62-8.02-41.9-9.04-13.1-21.69-22.06-35.9-29.02-29.33-14.38-70.29-22.5-102.83-26.18l-9.17-1.04c-35.96-4.07-98.44-6.27-135.03-5.49l-39.93.86-24.01,1.11-34.25,2.39c-42.19,2.95-110.32,14.18-145.18,38.83-15.27,10.8-23.99,23.25-27.02,41.92-.97,5.94-.11,11.93-.4,18.23-10.27,6.39-20.08,11.88-30.77,16.84l-15.03,6.97c-26.57,12.33-54.45,21.07-83.32,26.5-11.91,2.24-23.03,3.32-34.84,4.47-39.74,3.86-86.11-2.71-123.53-15.82l-8.75-3.06,3.98-20.65c4.77-24.73,11.42-48.28,20.08-71.83l8.58-23.34,14.06-31.96c6.46-14.68,13.93-28.5,22.08-42.08l20.23-7.15,22.88-7.96,34.32-10.84,27.06-7.85,22-5.95,23.94-6.07c18.34-4.65,36.27-8.67,54.92-12.16l36.29-6.78c58.78-10.99,117.72-17.55,177.54-19.57l29.6-1c17.45-.59,34.74.95,51.52-1.44h10V0h0Z"/>
  <path class="st0" d="M1166,310v25c-.42,1.04-1.01,2.99-1,3.76.12,8.39-.22,15.76-1.38,23.77-4.75,32.89-17.91,55.17-51.85,63.55-13.4,3.31-26.79,5.69-40.85,6.38-53.62,2.63-130.53-2.8-169.99-43.34-18.01-18.5-26.77-40.74-30.18-66.17-.89-6.66-1.77-13.24-1.74-19.9l.13-30.21c4.78,1.93,9.74,4.5,14.87,6.87l11.11,5.14c28.23,13.05,57.79,21.45,88.5,27.31,31.9,6.09,68.81,7.35,101.34,5.57,27.85-1.53,52.85-6.49,79.78-13.69.35,2.29.73,4.36,1.26,5.95h0Z"/>
  <path class="st0" d="M622.13,463"/>
  <path class="st0" d="M647.13,484"/>
  <path class="st0" d="M571.91,484"/>
  <path class="st0" d="M20.3,395.76c-5.28-14.34-8.78-28.57-8.9-43.64l-.35-45.92c21.43,6.2,41.93,11.85,63.76,15.83,11.34,2.07,22.56,2.41,34.18,3.92l31.01-.19c10.97-.07,39.1-3.49,50.19-5.75,44.7-9.1,76.41-21.93,117.02-43.34l-.58,43.49c-.1,7.51-2.17,14.43-3.54,21.87-9.57,43.76-35,70.92-77.2,85.04-29.03,9.71-50.45,11.76-80.92,13.44-22.46,1.24-44.26,0-66.37-3.78-10.46-1.78-20.26-4.9-29.66-9.38-13.58-6.48-22.59-17.37-28.65-31.6h.01Z"/>
</svg>