<?xml version="1.0" encoding="UTF-8"?>
<svg id="Layer_1" xmlns="http://www.w3.org/2000/svg" version="1.1" viewBox="0 0 374.25 79.5">
  <!-- Generator: Adobe Illustrator 30.1.0, SVG Export Plug-In . SVG Version: 2.1.1 Build 136)  -->
  <defs>
    <style>
      .st0 {
        fill: #e45253;
      }
    </style>
  </defs>
  <path class="st0" d="M33.9,60.28c-3.02,7.37-7.16,16.75-15.56,16.89-14.43.23-16.63-21.2-17.31-31.45C.09,31.63,1.24,16.34,13.63,7.46,22.35,1.2,33.16.5,43.59,1.02s20.28,4.75,25.1,14.23c3.27,6.42,2.62,13.87-1.23,20.38-9.24,15.65-25.76,5.61-33.56,24.65Z"/>
  <path class="st0" d="M371.02,58.41c0,2.44-3.08,4.05-4.7,4.05s-4.21-1.05-5.18-2.67l-12.89-21.53c-.48-.8-2.45-1.63-3.32-1.38s-1.9,2.1-1.89,3.1l.04,18.85c0,1.84-1.96,3.78-3.6,3.76-1.91-.03-3.56-1.75-3.56-3.81V23.77c.01-2.22,1.27-4.61,2.98-5.25,1.97-.73,5.28.06,6.47,2.02l13.27,21.89c.46.75,2.13,1.65,2.96,1.54s2.28-1.85,2.28-2.71l.09-19.83c0-1.36,2.04-3.16,3.17-3.29,1.36-.16,3.9,1.57,3.9,3.32l-.04,36.94Z"/>
  <path class="st0" d="M327.54,40.47c-.1,12.96-9.78,22.15-21.83,22.01-12.18-.14-21.25-9.88-21.14-22.4.1-12.07,9.29-21.76,21.18-21.86s21.9,9.41,21.8,22.25ZM316.8,49.73c3.55-5.82,3.39-13.26-.01-18.75s-10.19-6.91-15.65-4.86c-5.77,2.16-8.39,7.77-8.46,14.02s2.54,12.24,8.2,14.34,12.43.96,15.92-4.75Z"/>
  <path class="st0" d="M234.35,61.28l-10.28-14.78c-.54-.78-2.56-1.47-3.47-1.47-1.03,0-3.17,1.49-3.19,2.63l-.23,11.81c-.03,1.41-2.19,3.15-3.47,3.13-1.84-.03-3.68-1.76-3.68-3.93l-.03-36.38c0-1.06,1.66-3.14,2.75-3.18,9.97-.3,24.98-1.92,28.12,9.2,3.38,11.97-11.03,14.48-8.23,18.5l7.27,10.46c.72,1.04.21,3.57-.66,4.51-.81.86-3.94.88-4.9-.51ZM232.04,36.08c2.95-2.12,2.48-7.35-.16-9.09-3.55-2.33-9.27-3.11-12.9-.42-2.49,1.84-2.64,8.25-.05,10.19,3.39,2.54,9.63,1.82,13.11-.68Z"/>
  <path class="st0" d="M159.32,52.9c-4.97-.93-9.87-.78-14.66-.2s-3.8,11.33-9.31,9.7c-2.24-.66-2.97-2.88-2.16-4.97l13.88-36.07c.62-1.61,3.11-3.2,4.5-3.21,1.83-.02,4.25,1.5,5,3.46l13.7,35.6c.83,2.16,0,4.25-1.98,5.02-5.55,2.16-5.15-8.62-8.97-9.33ZM156.88,43.29c-.21-2.57-2.63-11.87-5.24-11.72-.48.03-1.72.82-1.9,1.28l-3.19,8.4c-.39,1.04-.11,3.48.78,3.95,2.38,1.24,9.84,1.69,9.54-1.91Z"/>
  <path class="st0" d="M262.61,43.04c-3.58.04-5.19,2.55-5.24,5.71-.03,1.89.82,6.23,3.48,6.27l16.24.27c1.62.03,3.39,1.66,3.39,3.02,0,1.74-1.58,3.19-3.46,3.18l-24.08-.04c-1,0-2.61-1.76-2.61-2.69V22.23c.01-1.41,1.97-3.23,3.25-3.23h23.52c1.27.01,3.19,1.8,3.3,2.94.9,9.06-23.19-2.59-23.05,8.96.14,11.32,18.31,1.39,19.77,8.11.38,1.75-1.09,3.89-3.04,3.91l-11.48.12Z"/>
  <path class="st0" d="M110.01,50.48l-.02,8.81c0,1.36-2.21,3.17-3.45,3.2-1.81.04-3.75-1.59-3.75-3.72V22.19c0-.94,1.83-3.02,2.83-3.06,9.28-.37,24.12-1.44,26.85,9.85,1.24,5.13-.63,9.98-4.94,13.11-8.22,5.98-17.51-.49-17.53,8.39ZM121.6,37.72c3.5-1.36,4.26-4.33,3.68-7.5-.93-5.04-11.66-7.27-14.33-2.69-1.38,2.37-1.52,7.59.47,9.63,2.41,2.47,7.19,1.73,10.18.56Z"/>
  <path class="st0" d="M189.64,58.3c0,2.41-1.92,4.15-3.77,4.21-1.62.05-3.63-1.75-3.63-3.75v-27.56c.02-3.41-2.15-5.53-5.62-5.51l-5.42.02c-1.2,0-2.9-2-3.02-3.07-.14-1.3,1.58-3.57,3.24-3.58l28.55-.07c1.48,0,3.58,1.81,3.69,3.04.17,1.83-1.75,3.75-3.57,3.73l-5.5-.04c-2.53-.02-4.88,2.02-4.88,4.71l-.06,27.87Z"/>
</svg>